<svg xmlns="http://www.w3.org/2000/svg" viewBox="0 0 750 500"><g id="freepik--JavaScript--inject-156"><polygon points="216.18 224.08 95.65 224.08 95.65 74.18 187.85 74.45 216.18 105.22 216.18 224.08" style="fill:#ebebeb"></polygon><path d="M131.7,159.7c-.15.15-2.15-1.66-5.26-4.7s-7.34-7.32-11.94-12.12l-.51-.54.51-.54,0-.05c4.58-4.83,8.79-9.15,11.9-12.22s5.1-4.9,5.25-4.75-1.55,2.24-4.45,5.51-7,7.7-11.57,12.54l-.05,0V141.8c4.6,4.8,8.69,9.2,11.6,12.44S131.86,159.55,131.7,159.7Z" style="fill:#263238"></path><path d="M180.07,124.78c.16-.15,2.16,1.66,5.27,4.7s7.34,7.32,11.93,12.12l.52.54-.51.54-.05,0c-4.59,4.84-8.8,9.15-11.9,12.22s-5.1,4.9-5.26,4.75,1.56-2.24,4.46-5.51,7-7.7,11.56-12.53l0-.06v1.08c-4.59-4.8-8.69-9.2-11.6-12.43S179.92,124.93,180.07,124.78Z" style="fill:#263238"></path><path d="M141.22,165.21c-.36-.22,5.89-11.12,14-24.34s14.93-23.75,15.3-23.52-5.88,11.12-14,24.34S141.59,165.44,141.22,165.21Z" style="fill:#263238"></path><path d="M187.84,74.46l-.11,25.11a6.46,6.46,0,0,0,6.65,6.48l21.8-.81Z" style="fill:#e0e0e0"></path><rect x="81.58" y="175.72" width="53.45" height="32.49" style="fill:#08C8A4"></rect><path d="M96.77,198.61,98.16,197a4.19,4.19,0,0,0,3.5,2c1.89,0,2.87-1.15,2.87-3.41v-9.42H98.47v-2.08h8.44v11.38c0,3.74-1.82,5.59-5.25,5.59A5.87,5.87,0,0,1,96.77,198.61Z" style="fill:#fff"></path><path d="M110.26,198.92l.89-1.87a8.6,8.6,0,0,0,5.53,1.94c2.91,0,4.15-1.13,4.15-2.59,0-4.1-10.16-1.51-10.16-7.74,0-2.59,2-4.8,6.42-4.8a9.88,9.88,0,0,1,5.4,1.49l-.8,1.92a8.6,8.6,0,0,0-4.6-1.37c-2.85,0-4.07,1.2-4.07,2.66,0,4.1,10.16,1.54,10.16,7.7,0,2.56-2.06,4.77-6.5,4.77A10,10,0,0,1,110.26,198.92Z" style="fill:#fff"></path></g><g id="freepik--Screen--inject-156"><rect x="344.86" y="156.27" width="271.84" height="158.4" style="fill:#263238"></rect><path d="M366.12,306.7c-.14,0-.26-32.39-.26-72.34S366,162,366.12,162s.26,32.38.26,72.34S366.27,306.7,366.12,306.7Z" style="fill:#e0e0e0"></path><path d="M360.53,168.12a39.07,39.07,0,0,1-9,0,39.07,39.07,0,0,1,9,0Z" style="fill:#e0e0e0"></path><path d="M360.53,177.65a39.07,39.07,0,0,1-9,0,39.07,39.07,0,0,1,9,0Z" style="fill:#e0e0e0"></path><path d="M360.53,187.19a39.07,39.07,0,0,1-9,0,39.07,39.07,0,0,1,9,0Z" style="fill:#e0e0e0"></path><path d="M360.53,196.72a39.07,39.07,0,0,1-9,0,39.07,39.07,0,0,1,9,0Z" style="fill:#e0e0e0"></path><path d="M360.53,206.25a39.07,39.07,0,0,1-9,0,39.07,39.07,0,0,1,9,0Z" style="fill:#e0e0e0"></path><path d="M360.53,215.79a39.07,39.07,0,0,1-9,0,39.07,39.07,0,0,1,9,0Z" style="fill:#e0e0e0"></path><path d="M360.53,225.32a39.07,39.07,0,0,1-9,0,39.07,39.07,0,0,1,9,0Z" style="fill:#e0e0e0"></path><path d="M360.53,234.85a39.07,39.07,0,0,1-9,0,39.07,39.07,0,0,1,9,0Z" style="fill:#e0e0e0"></path><path d="M360.53,244.39a39.07,39.07,0,0,1-9,0,39.07,39.07,0,0,1,9,0Z" style="fill:#e0e0e0"></path><path d="M360.53,253.92a39.07,39.07,0,0,1-9,0,39.07,39.07,0,0,1,9,0Z" style="fill:#e0e0e0"></path><path d="M360.53,263.45a39.07,39.07,0,0,1-9,0,39.07,39.07,0,0,1,9,0Z" style="fill:#e0e0e0"></path><path d="M360.53,273a39.07,39.07,0,0,1-9,0,39.07,39.07,0,0,1,9,0Z" style="fill:#e0e0e0"></path><path d="M360.53,282.52a39.07,39.07,0,0,1-9,0,39.07,39.07,0,0,1,9,0Z" style="fill:#e0e0e0"></path><path d="M360.53,292.05a39.07,39.07,0,0,1-9,0,39.07,39.07,0,0,1,9,0Z" style="fill:#e0e0e0"></path><path d="M360.53,301.59a39.07,39.07,0,0,1-9,0,39.07,39.07,0,0,1,9,0Z" style="fill:#e0e0e0"></path><path d="M396.62,167.56c0,.14-5.23.26-11.68.26s-11.69-.12-11.69-.26,5.23-.26,11.69-.26S396.62,167.41,396.62,167.56Z" style="fill:#08C8A4"></path><path d="M396.62,301.59c0,.14-5.23.26-11.68.26s-11.69-.12-11.69-.26,5.23-.26,11.69-.26S396.62,301.44,396.62,301.59Z" style="fill:#08C8A4"></path><path d="M429.16,187.19c0,.14-9.79.26-21.86.26s-21.86-.12-21.86-.26,9.79-.26,21.86-.26S429.16,187,429.16,187.19Z" style="fill:#08C8A4"></path><path d="M479.7,187.19c0,.14-9.78.26-21.85.26s-21.86-.12-21.86-.26,9.78-.26,21.86-.26S479.7,187,479.7,187.19Z" style="fill:#e0e0e0"></path><path d="M460.39,196.72c0,.14-14.43.26-32.21.26s-32.22-.12-32.22-.26,14.42-.26,32.22-.26S460.39,196.58,460.39,196.72Z" style="fill:#e0e0e0"></path><path d="M460.39,206.25c0,.15-14.43.26-32.21.26S396,206.4,396,206.25s14.42-.26,32.22-.26S460.39,206.11,460.39,206.25Z" style="fill:#e0e0e0"></path><path d="M504.73,234.85c0,.15-14.42.26-32.21.26s-32.21-.11-32.21-.26,14.42-.26,32.21-.26S504.73,234.71,504.73,234.85Z" style="fill:#e0e0e0"></path><path d="M485.6,215.79c0,.14-14.43.26-32.21.26s-32.22-.12-32.22-.26,14.42-.26,32.22-.26S485.6,215.64,485.6,215.79Z" style="fill:#e0e0e0"></path><path d="M564.32,215.79c0,.14-14.42.26-32.21.26s-32.21-.12-32.21-.26,14.42-.26,32.21-.26S564.32,215.64,564.32,215.79Z" style="fill:#e0e0e0"></path><path d="M536.94,196.72c0,.14-14.42.26-32.21.26s-32.21-.12-32.21-.26,14.42-.26,32.21-.26S536.94,196.58,536.94,196.72Z" style="fill:#fafafa"></path><path d="M581.45,234.85c0,.15-14.43.26-32.21.26S517,235,517,234.85s14.42-.26,32.22-.26S581.45,234.71,581.45,234.85Z" style="fill:#fafafa"></path><path d="M572.56,206.25c0,.15-22.4.26-50,.26s-50-.11-50-.26,22.39-.26,50-.26S572.56,206.11,572.56,206.25Z" style="fill:#455a64"></path><path d="M396.62,177.65c0,.15-5.23.26-11.68.26s-11.69-.11-11.69-.26,5.23-.26,11.69-.26S396.62,177.51,396.62,177.65Z" style="fill:#fafafa"></path><path d="M396.62,292.05c0,.15-5.23.26-11.68.26s-11.69-.11-11.69-.26,5.23-.26,11.69-.26S396.62,291.91,396.62,292.05Z" style="fill:#fafafa"></path><path d="M408.19,215.79c0,.14-5.23.26-11.68.26s-11.68-.12-11.68-.26,5.23-.26,11.68-.26S408.19,215.64,408.19,215.79Z" style="fill:#fafafa"></path><path d="M595.45,215.79c0,.14-5.23.26-11.68.26s-11.68-.12-11.68-.26,5.23-.26,11.68-.26S595.45,215.64,595.45,215.79Z" style="fill:#08C8A4"></path><path d="M429.16,253.86c0,.15-9.79.26-21.86.26s-21.86-.11-21.86-.26,9.79-.26,21.86-.26S429.16,253.72,429.16,253.86Z" style="fill:#08C8A4"></path><path d="M479.7,253.86c0,.15-9.78.26-21.85.26S436,254,436,253.86s9.78-.26,21.86-.26S479.7,253.72,479.7,253.86Z" style="fill:#e0e0e0"></path><path d="M460.39,263.4c0,.14-14.43.26-32.21.26S396,263.54,396,263.4s14.42-.26,32.22-.26S460.39,263.25,460.39,263.4Z" style="fill:#e0e0e0"></path><path d="M460.39,272.93c0,.14-14.43.26-32.21.26s-32.22-.12-32.22-.26,14.42-.26,32.22-.26S460.39,272.79,460.39,272.93Z" style="fill:#e0e0e0"></path><path d="M485.6,282.46c0,.15-14.43.26-32.21.26s-32.22-.11-32.22-.26,14.42-.26,32.22-.26S485.6,282.32,485.6,282.46Z" style="fill:#e0e0e0"></path><path d="M564.32,282.46c0,.15-14.42.26-32.21.26s-32.21-.11-32.21-.26,14.42-.26,32.21-.26S564.32,282.32,564.32,282.46Z" style="fill:#e0e0e0"></path><path d="M536.94,263.4c0,.14-14.42.26-32.21.26s-32.21-.12-32.21-.26,14.42-.26,32.21-.26S536.94,263.25,536.94,263.4Z" style="fill:#fafafa"></path><path d="M572.56,272.93c0,.14-22.4.26-50,.26s-50-.12-50-.26,22.39-.26,50-.26S572.56,272.79,572.56,272.93Z" style="fill:#455a64"></path><path d="M408.19,282.46c0,.15-5.23.26-11.68.26s-11.68-.11-11.68-.26,5.23-.26,11.68-.26S408.19,282.32,408.19,282.46Z" style="fill:#fafafa"></path><path d="M595.45,282.46c0,.15-5.23.26-11.68.26s-11.68-.11-11.68-.26,5.23-.26,11.68-.26S595.45,282.32,595.45,282.46Z" style="fill:#08C8A4"></path></g><g id="freepik--React--inject-156"><path d="M652.65,312.48c-.19.11-1.88-2.7-5.29-7.52-1.7-2.41-3.85-5.31-6.52-8.53a95,95,0,0,0-9.79-10.21,54.26,54.26,0,0,0-6.46-5,24.43,24.43,0,0,0-7.83-3.52,9.55,9.55,0,0,0-4.22-.06,6.29,6.29,0,0,0-3.44,2.21,10.17,10.17,0,0,0-1.89,4.08,22.08,22.08,0,0,0-.6,4.87,48.11,48.11,0,0,0,1.14,10.39,84.39,84.39,0,0,0,3,10.62A133,133,0,0,0,634,350.06a86.31,86.31,0,0,0,7.68,7.93,48.2,48.2,0,0,0,8.43,6.19,23,23,0,0,0,4.52,1.92,10.37,10.37,0,0,0,4.48.4,6.25,6.25,0,0,0,3.63-1.89,9.42,9.42,0,0,0,2.06-3.67,24.32,24.32,0,0,0,.86-8.54,52.82,52.82,0,0,0-1.07-8.09,93.8,93.8,0,0,0-4-13.58c-1.45-3.92-2.89-7.23-4.12-9.91-2.47-5.37-4.06-8.23-3.87-8.34a9.3,9.3,0,0,1,1.4,1.94c.82,1.33,2,3.32,3.38,5.95s3,5.91,4.57,9.83a89.73,89.73,0,0,1,4.39,13.73,54.48,54.48,0,0,1,1.28,8.35,26.34,26.34,0,0,1-.81,9.31,11.7,11.7,0,0,1-2.5,4.55,8.43,8.43,0,0,1-4.87,2.61,12.52,12.52,0,0,1-5.49-.39,24.58,24.58,0,0,1-5-2.08,49.43,49.43,0,0,1-8.94-6.43,86.26,86.26,0,0,1-8-8.13,131.91,131.91,0,0,1-23.7-41,85.29,85.29,0,0,1-3-11,49.77,49.77,0,0,1-1.11-11,24.45,24.45,0,0,1,.72-5.39,12.64,12.64,0,0,1,2.4-5,8.54,8.54,0,0,1,4.7-2.91,11.65,11.65,0,0,1,5.2.11,26.38,26.38,0,0,1,8.46,3.95,56.1,56.1,0,0,1,6.6,5.28A90.55,90.55,0,0,1,642,295.52c2.6,3.35,4.64,6.36,6.23,8.87s2.73,4.53,3.46,5.91A9.09,9.09,0,0,1,652.65,312.48Z" style="fill:#08C8A4"></path><path d="M621.77,312.42c.18.11-1.44,2.84-4,8-1.26,2.56-2.74,5.73-4.23,9.49a86.1,86.1,0,0,0-4.07,13.06,49.16,49.16,0,0,0-1.12,7.8,23,23,0,0,0,.8,8.24,9.49,9.49,0,0,0,2,3.57,6.56,6.56,0,0,0,3.48,1.94,10,10,0,0,0,4.35-.12,20.23,20.23,0,0,0,4.46-1.6,43.78,43.78,0,0,0,8.43-5.55,79.38,79.38,0,0,0,7.74-7.34,122.52,122.52,0,0,0,23.63-38.18,78.38,78.38,0,0,0,3.11-10.21,43.81,43.81,0,0,0,1.21-10,20.51,20.51,0,0,0-.56-4.7,10.06,10.06,0,0,0-1.83-3.95,6.57,6.57,0,0,0-3.3-2.25,9.48,9.48,0,0,0-4.08-.18,23.09,23.09,0,0,0-7.73,2.95,50.75,50.75,0,0,0-6.48,4.49,87.15,87.15,0,0,0-9.87,9.47c-2.7,3-4.88,5.75-6.61,8-3.46,4.54-5.18,7.21-5.36,7.1a7.6,7.6,0,0,1,1-2.09c.75-1.31,1.9-3.23,3.53-5.6a105,105,0,0,1,6.33-8.38,82.53,82.53,0,0,1,9.8-9.94,49.51,49.51,0,0,1,6.63-4.8,25,25,0,0,1,8.42-3.36,11.77,11.77,0,0,1,5,.18,8.82,8.82,0,0,1,4.46,2.95,12.47,12.47,0,0,1,2.33,4.8,23.24,23.24,0,0,1,.68,5.24A45.66,45.66,0,0,1,668.81,302a80,80,0,0,1-3.15,10.56,122.35,122.35,0,0,1-24.15,39,80.2,80.2,0,0,1-8,7.54,45.84,45.84,0,0,1-9,5.78,22.86,22.86,0,0,1-5,1.73,12.28,12.28,0,0,1-5.33.06,8.82,8.82,0,0,1-4.63-2.67,11.73,11.73,0,0,1-2.41-4.42,25,25,0,0,1-.75-9,49.54,49.54,0,0,1,1.34-8.08,82.47,82.47,0,0,1,4.52-13.21,104.14,104.14,0,0,1,4.67-9.4c1.4-2.52,2.6-4.4,3.44-5.66S621.69,312.37,621.77,312.42Z" style="fill:#08C8A4"></path><path d="M635.24,300.91c0,.22-3.18.27-8.87.82-2.84.28-6.31.7-10.29,1.4a87.75,87.75,0,0,0-13.25,3.42,50.07,50.07,0,0,0-7.22,3.15,22.89,22.89,0,0,0-6.59,5,9.53,9.53,0,0,0-2,3.56,6.65,6.65,0,0,0,.18,4,10.22,10.22,0,0,0,2.39,3.64,20.88,20.88,0,0,0,3.71,2.94,43.83,43.83,0,0,0,9.15,4.25,78.16,78.16,0,0,0,10.33,2.72,122.14,122.14,0,0,0,44.89,0A78,78,0,0,0,668,333.1a43.68,43.68,0,0,0,9.16-4.25,20.88,20.88,0,0,0,3.71-2.94,10.22,10.22,0,0,0,2.39-3.64,6.65,6.65,0,0,0,.18-4,9.53,9.53,0,0,0-2-3.56,22.89,22.89,0,0,0-6.59-5,48,48,0,0,0-7.22-3.15,87.75,87.75,0,0,0-13.25-3.42c-4-.7-7.45-1.12-10.29-1.4-5.69-.55-8.87-.6-8.86-.82a7.76,7.76,0,0,1,2.3-.24c1.51-.05,3.75-.08,6.63.05s6.39.4,10.45,1a82.6,82.6,0,0,1,13.61,3.1,50.72,50.72,0,0,1,7.57,3.12,24.86,24.86,0,0,1,7.29,5.39,11.7,11.7,0,0,1,2.49,4.37,8.86,8.86,0,0,1-.16,5.34,12.36,12.36,0,0,1-2.86,4.51,22.22,22.22,0,0,1-4.1,3.33,45.69,45.69,0,0,1-9.64,4.59,79.18,79.18,0,0,1-10.64,2.87,121.84,121.84,0,0,1-45.89,0,79.18,79.18,0,0,1-10.64-2.87,45.69,45.69,0,0,1-9.64-4.59,22.55,22.55,0,0,1-4.1-3.33,12.28,12.28,0,0,1-2.86-4.51,8.86,8.86,0,0,1-.16-5.34,11.77,11.77,0,0,1,2.49-4.37,24.91,24.91,0,0,1,7.29-5.39,49.19,49.19,0,0,1,7.57-3.11,81.48,81.48,0,0,1,13.61-3.11c4.06-.58,7.58-.85,10.45-1s5.12-.1,6.63-.05A7.87,7.87,0,0,1,635.24,300.91Z" style="fill:#08C8A4"></path><circle cx="637.71" cy="322.29" r="8.37" transform="translate(217.19 899.96) rotate(-80.76)" style="fill:#08C8A4"></circle></g><g id="freepik--Device--inject-156"><path d="M202.13,235.47H499.58a6.74,6.74,0,0,1,6.74,6.74v185a14.57,14.57,0,0,1-14.57,14.57H208.95a14.57,14.57,0,0,1-14.57-14.57v-184A7.75,7.75,0,0,1,202.13,235.47Z" style="fill:#455a64"></path><path d="M181.34,426.5h338a0,0,0,0,1,0,0v4.33a13.72,13.72,0,0,1-13.72,13.72H195.06a13.72,13.72,0,0,1-13.72-13.72V426.5a0,0,0,0,1,0,0Z" style="fill:#455a64"></path><rect x="202.75" y="243.67" width="294.32" height="174.2" style="fill:#e0e0e0"></rect><polygon points="319.6 426.5 323.79 433.17 382.8 433.17 386.7 426.5 319.6 426.5" style="fill:#263238"></polygon><rect x="194.43" y="426.43" width="311.94" height="0.99" style="fill:#263238"></rect><rect x="211.49" y="253.76" width="277.56" height="164.11" style="fill:#263238"></rect><path d="M232.78,413.05c-.14,0-.26-34.95-.26-78.06s.12-78.06.26-78.06S233,291.87,233,335,232.92,413.05,232.78,413.05Z" style="fill:#e0e0e0"></path><path d="M227.18,271.08a19.36,19.36,0,0,1-4.51.26,19.36,19.36,0,0,1-4.51-.26,39.25,39.25,0,0,1,9,0Z" style="fill:#e0e0e0"></path><path d="M227.53,262.22a19.36,19.36,0,0,1-4.51.26,19.36,19.36,0,0,1-4.51-.26,39.25,39.25,0,0,1,9,0Z" style="fill:#e0e0e0"></path><path d="M227.18,280.63a39.25,39.25,0,0,1-9,0,39.25,39.25,0,0,1,9,0Z" style="fill:#e0e0e0"></path><path d="M227.18,290.18a39.25,39.25,0,0,1-9,0,19.36,19.36,0,0,1,4.51-.26A19.36,19.36,0,0,1,227.18,290.18Z" style="fill:#e0e0e0"></path><path d="M227.18,299.73a39.25,39.25,0,0,1-9,0,19.36,19.36,0,0,1,4.51-.26A19.36,19.36,0,0,1,227.18,299.73Z" style="fill:#e0e0e0"></path><path d="M227.18,309.28a39.25,39.25,0,0,1-9,0,19.36,19.36,0,0,1,4.51-.26A19.36,19.36,0,0,1,227.18,309.28Z" style="fill:#e0e0e0"></path><path d="M227.18,318.82a19,19,0,0,1-4.51.27,19,19,0,0,1-4.51-.27,39.25,39.25,0,0,1,9,0Z" style="fill:#e0e0e0"></path><path d="M227.18,328.37a19.36,19.36,0,0,1-4.51.26,19.36,19.36,0,0,1-4.51-.26,39.25,39.25,0,0,1,9,0Z" style="fill:#e0e0e0"></path><path d="M227.18,337.92a19.36,19.36,0,0,1-4.51.26,19.36,19.36,0,0,1-4.51-.26,39.25,39.25,0,0,1,9,0Z" style="fill:#e0e0e0"></path><path d="M227.18,347.47a19.36,19.36,0,0,1-4.51.26,19.36,19.36,0,0,1-4.51-.26,39.25,39.25,0,0,1,9,0Z" style="fill:#e0e0e0"></path><path d="M227.18,357a39.25,39.25,0,0,1-9,0,39.25,39.25,0,0,1,9,0Z" style="fill:#e0e0e0"></path><path d="M227.18,366.57a39.25,39.25,0,0,1-9,0,19.36,19.36,0,0,1,4.51-.26A19.36,19.36,0,0,1,227.18,366.57Z" style="fill:#e0e0e0"></path><path d="M227.18,376.12a39.25,39.25,0,0,1-9,0,19.36,19.36,0,0,1,4.51-.26A19.36,19.36,0,0,1,227.18,376.12Z" style="fill:#e0e0e0"></path><path d="M227.18,385.67a39.25,39.25,0,0,1-9,0,19.36,19.36,0,0,1,4.51-.26A19.36,19.36,0,0,1,227.18,385.67Z" style="fill:#e0e0e0"></path><path d="M227.18,395.22a39.25,39.25,0,0,1-9,0,19,19,0,0,1,4.51-.27A19,19,0,0,1,227.18,395.22Z" style="fill:#e0e0e0"></path><path d="M227.18,404.76a19.36,19.36,0,0,1-4.51.26,19.36,19.36,0,0,1-4.51-.26,39.25,39.25,0,0,1,9,0Z" style="fill:#e0e0e0"></path><path d="M263.33,270.52c0,.14-5.24.26-11.7.26s-11.71-.12-11.71-.26,5.24-.26,11.71-.26S263.33,270.37,263.33,270.52Z" style="fill:#08C8A4"></path><path d="M263.33,404.76c0,.15-5.24.26-11.7.26s-11.71-.11-11.71-.26,5.24-.26,11.71-.26S263.33,404.62,263.33,404.76Z" style="fill:#08C8A4"></path><path d="M295.92,290.18c0,.14-9.81.26-21.9.26s-21.89-.12-21.89-.26,9.8-.26,21.89-.26S295.92,290,295.92,290.18Z" style="fill:#08C8A4"></path><path d="M346.55,290.18c0,.14-9.81.26-21.9.26s-21.89-.12-21.89-.26,9.8-.26,21.89-.26S346.55,290,346.55,290.18Z" style="fill:#e0e0e0"></path><path d="M327.2,299.73c0,.14-14.45.26-32.27.26s-32.26-.12-32.26-.26,14.44-.26,32.26-.26S327.2,299.58,327.2,299.73Z" style="fill:#e0e0e0"></path><path d="M327.2,309.28c0,.14-14.45.26-32.27.26s-32.26-.12-32.26-.26,14.44-.26,32.26-.26S327.2,309.13,327.2,309.28Z" style="fill:#e0e0e0"></path><path d="M371.61,337.92c0,.15-14.44.26-32.26.26s-32.27-.11-32.27-.26,14.45-.26,32.27-.26S371.61,337.78,371.61,337.92Z" style="fill:#e0e0e0"></path><path d="M352.45,318.82c0,.15-14.45.27-32.27.27s-32.26-.12-32.26-.27,14.44-.26,32.26-.26S352.45,318.68,352.45,318.82Z" style="fill:#e0e0e0"></path><path d="M431.3,318.82c0,.15-14.45.27-32.26.27s-32.27-.12-32.27-.27,14.45-.26,32.27-.26S431.3,318.68,431.3,318.82Z" style="fill:#e0e0e0"></path><path d="M403.88,299.73c0,.14-14.45.26-32.27.26s-32.26-.12-32.26-.26,14.44-.26,32.26-.26S403.88,299.58,403.88,299.73Z" style="fill:#fafafa"></path><path d="M448.45,337.92c0,.15-14.45.26-32.26.26s-32.27-.11-32.27-.26,14.45-.26,32.27-.26S448.45,337.78,448.45,337.92Z" style="fill:#fafafa"></path><path d="M439.55,309.28c0,.14-22.43.26-50.1.26s-50.1-.12-50.1-.26,22.43-.26,50.1-.26S439.55,309.13,439.55,309.28Z" style="fill:#455a64"></path><path d="M263.33,280.63c0,.14-5.24.26-11.7.26s-11.71-.12-11.71-.26,5.24-.26,11.71-.26S263.33,280.49,263.33,280.63Z" style="fill:#fafafa"></path><path d="M263.33,395.22c0,.14-5.24.26-11.7.26s-11.71-.12-11.71-.26,5.24-.27,11.71-.27S263.33,395.07,263.33,395.22Z" style="fill:#fafafa"></path><path d="M274.92,318.82c0,.15-5.24.27-11.7.27s-11.7-.12-11.7-.27,5.23-.26,11.7-.26S274.92,318.68,274.92,318.82Z" style="fill:#fafafa"></path><path d="M462.48,318.82c0,.15-5.24.27-11.7.27s-11.7-.12-11.7-.27,5.23-.26,11.7-.26S462.48,318.68,462.48,318.82Z" style="fill:#08C8A4"></path><path d="M295.92,357c0,.15-9.81.26-21.9.26s-21.89-.11-21.89-.26,9.8-.26,21.89-.26S295.92,356.82,295.92,357Z" style="fill:#08C8A4"></path><path d="M346.55,357c0,.15-9.81.26-21.9.26s-21.89-.11-21.89-.26,9.8-.26,21.89-.26S346.55,356.82,346.55,357Z" style="fill:#e0e0e0"></path><path d="M327.2,366.51c0,.15-14.45.26-32.27.26s-32.26-.11-32.26-.26,14.44-.26,32.26-.26S327.2,366.37,327.2,366.51Z" style="fill:#e0e0e0"></path><path d="M327.2,376.06c0,.15-14.45.26-32.27.26s-32.26-.11-32.26-.26,14.44-.26,32.26-.26S327.2,375.92,327.2,376.06Z" style="fill:#e0e0e0"></path><path d="M352.45,385.61c0,.14-14.45.26-32.27.26s-32.26-.12-32.26-.26,14.44-.26,32.26-.26S352.45,385.47,352.45,385.61Z" style="fill:#e0e0e0"></path><path d="M431.3,385.61c0,.14-14.45.26-32.26.26s-32.27-.12-32.27-.26,14.45-.26,32.27-.26S431.3,385.47,431.3,385.61Z" style="fill:#e0e0e0"></path><path d="M403.88,366.51c0,.15-14.45.26-32.27.26s-32.26-.11-32.26-.26,14.44-.26,32.26-.26S403.88,366.37,403.88,366.51Z" style="fill:#fafafa"></path><path d="M439.55,376.06c0,.15-22.43.26-50.1.26s-50.1-.11-50.1-.26,22.43-.26,50.1-.26S439.55,375.92,439.55,376.06Z" style="fill:#455a64"></path><path d="M274.92,385.61c0,.14-5.24.26-11.7.26s-11.7-.12-11.7-.26,5.23-.26,11.7-.26S274.92,385.47,274.92,385.61Z" style="fill:#fafafa"></path><path d="M462.48,385.61c0,.14-5.24.26-11.7.26s-11.7-.12-11.7-.26,5.23-.26,11.7-.26S462.48,385.47,462.48,385.61Z" style="fill:#08C8A4"></path></g><g id="freepik--Floor--inject-156"><path d="M700.42,444.56c0,.14-145.71.26-325.4.26s-325.44-.12-325.44-.26,145.68-.26,325.44-.26S700.42,444.41,700.42,444.56Z" style="fill:#263238"></path></g></svg>