<svg width="64" height="64" viewBox="0 0 64 64" fill="none" xmlns="http://www.w3.org/2000/svg">
<g clip-path="url(#clip0_3_15)">
<path d="M58.6229 5.37404L6.92573 25.2022L22.5915 32.6865L46.5811 17.2855L31.5576 41.947L38.8683 57.0824L58.6124 5.37404H58.6229ZM1.25993 23.1761L61.1764 0.196959C61.4189 0.0788551 61.6834 0.0123134 61.9531 0.00155431C62.2228 -0.00920478 62.4917 0.0360536 62.743 0.134459C63.2315 0.320038 63.6262 0.691314 63.8406 1.16683C64.055 1.64234 64.0715 2.18327 63.8866 2.67092L40.9362 62.7386C40.7977 63.0957 40.558 63.4047 40.2462 63.628C39.9344 63.8512 39.5641 63.9789 39.1806 63.9955C38.7972 64.0121 38.4172 63.9168 38.0872 63.7213C37.7572 63.5258 37.4915 63.2386 37.3226 62.8949L25.4845 38.4157L1.11372 26.7699C0.767948 26.6043 0.478366 26.3414 0.280731 26.0135C0.0830965 25.6857 -0.0139364 25.3073 0.00161508 24.925C0.0171665 24.5428 0.144621 24.1735 0.36824 23.8627C0.591859 23.5519 0.90185 23.3132 1.25993 23.1761Z" fill="#131313"/>
</g>
<defs>
<clipPath id="clip0_3_15">
<rect width="64" height="64" fill="white"/>
</clipPath>
</defs>
</svg>
