<svg width="64" height="64" viewBox="0 0 64 64" fill="none" xmlns="http://www.w3.org/2000/svg">
<g clip-path="url(#clip0_31_294)">
<path fill-rule="evenodd" clip-rule="evenodd" d="M22.8582 20.5715H35.5044V27.0547H35.6874C37.4485 23.8952 41.7549 20.5715 48.1766 20.5715C61.5303 20.5715 64 28.8818 64 39.6926V61.7145H50.8116V42.193C50.8116 37.5394 50.7147 31.5488 43.954 31.5488C37.087 31.5488 36.0346 36.6146 36.0346 41.854V61.7145H22.8581V20.5715H22.8582ZM13.7152 9.143C13.7152 12.9285 10.6431 16.0006 6.8576 16.0006C3.0721 16.0006 -0.00109863 12.9285 -0.00109863 9.143C-0.00109863 5.3575 3.0721 2.2854 6.8576 2.2854C10.6431 2.2854 13.7152 5.3575 13.7152 9.143ZM-0.00109863 20.5715H13.7152V61.7145H-0.00109863V20.5715Z" fill="#131313"/>
</g>
<defs>
<clipPath id="clip0_31_294">
<rect width="64" height="64" fill="white"/>
</clipPath>
</defs>
</svg>
