<svg width="14" height="14" viewBox="0 0 14 14" fill="none" xmlns="http://www.w3.org/2000/svg">
<g clip-path="url(#clip0_6_119)">
<path d="M12.6297 8.2691C12.6297 7.90565 12.9254 7.61057 13.2897 7.61057C13.654 7.61057 13.9498 7.90565 13.9498 8.2691V12.0505C13.9498 12.5871 13.7305 13.0748 13.3765 13.428C13.0225 13.7811 12.5338 13.9999 11.9959 13.9999H1.95383C1.41599 13.9999 0.927243 13.7811 0.573246 13.428C0.21925 13.0748 0 12.5871 0 12.0505V1.95839C0 1.42177 0.21925 0.934136 0.573246 0.580946C0.927243 0.227756 1.41599 0.00900597 1.95383 0.00900597H5.7199C6.08418 0.00900597 6.37993 0.304091 6.37993 0.667535C6.37993 1.03098 6.08418 1.32606 5.7199 1.32606H1.95383C1.78026 1.32606 1.62268 1.39784 1.50734 1.51177C1.39201 1.62684 1.32121 1.78407 1.32121 1.95725V12.0494C1.32121 12.2225 1.39315 12.3798 1.50734 12.4948C1.62268 12.6099 1.78026 12.6806 1.95383 12.6806H11.9971C12.1706 12.6806 12.3282 12.6088 12.4436 12.4948C12.5589 12.3809 12.6297 12.2225 12.6297 12.0494V8.2691ZM12.8375 1.98915L6.16754 8.72711C5.91289 8.98573 5.49494 8.98915 5.23573 8.73508C4.97651 8.48101 4.97308 8.06402 5.22773 7.80539L11.6408 1.32606H8.97096C8.60669 1.32606 8.31093 1.03098 8.31093 0.667535C8.31093 0.304091 8.60669 0.00900597 8.97096 0.00900597H11.9971C12.5817 0.00900597 13.3354 -0.0901151 13.7842 0.362196C14.0674 0.648166 14.0046 2.92795 13.968 4.24843C13.9589 4.59022 13.9509 4.85113 13.9509 5.03798C13.9509 5.40142 13.6551 5.69651 13.2909 5.69651C12.9266 5.69651 12.6308 5.40142 12.6308 5.03798C12.6308 5.00266 12.64 4.65972 12.6525 4.21311C12.6708 3.52496 12.7816 2.6135 12.8375 1.98915Z" fill="#131313"/>
</g>
<defs>
<clipPath id="clip0_6_119">
<rect width="14" height="14" fill="white"/>
</clipPath>
</defs>
</svg>
