<svg width="59" height="59" viewBox="0 0 59 59" fill="none" xmlns="http://www.w3.org/2000/svg">
<g clip-path="url(#clip0_141_100)">
<path d="M5.54004 37.24H52.54C50.943 42.2175 47.8067 46.5593 43.5833 49.6397C39.3599 52.7201 34.2675 54.3799 29.04 54.3799C23.8126 54.3799 18.7202 52.7201 14.4968 49.6397C10.2733 46.5593 7.13709 42.2175 5.54004 37.24Z" fill="#F9D606"/>
<path opacity="0.2" d="M53.1899 24.46H4.91992C6.10989 18.9429 9.15418 14 13.5457 10.4546C17.9373 6.9093 23.4109 4.97559 29.0549 4.97559C34.6989 4.97559 40.1726 6.9093 44.5641 10.4546C48.9557 14 52 18.9429 53.1899 24.46Z" fill="#F9D606"/>
<path opacity="0.52" d="M53.7601 30C53.7527 32.0094 53.3483 33.9974 52.5701 35.85H5.57008C4.23962 32.714 4.02087 29.2174 4.95008 25.94H53.1901C53.5592 27.2621 53.7509 28.6274 53.7601 30Z" fill="#F9D606"/>
<path d="M29.41 58.84C23.5887 58.8459 17.8965 57.1248 13.0538 53.8943C8.21111 50.6639 4.43563 46.0694 2.20518 40.6924C-0.0252686 35.3154 -0.610411 29.3975 0.52381 23.6878C1.65803 17.9781 4.46063 12.7332 8.57689 8.61693C12.6932 4.50067 17.9381 1.69807 23.6478 0.563849C29.3575 -0.570372 35.2753 0.0147705 40.6524 2.24522C46.0294 4.47567 50.6239 8.25115 53.8543 13.0938C57.0847 17.9365 58.8059 23.6287 58.8 29.45C58.7841 37.2398 55.6826 44.7061 50.1743 50.2144C44.6661 55.7226 37.1998 58.8241 29.41 58.84ZM29.41 1.5C23.8934 1.5 18.5008 3.13597 13.9141 6.20101C9.32736 9.26604 5.75264 13.6225 3.642 18.7193C1.53137 23.8161 0.979639 29.4243 2.05659 34.8347C3.13354 40.2451 5.7908 45.2147 9.69229 49.1147C13.5938 53.0148 18.5642 55.6703 23.975 56.7453C29.3858 57.8203 34.9939 57.2666 40.0899 55.1541C45.186 53.0417 49.5411 49.4654 52.6045 44.8776C55.6679 40.2898 57.3019 34.8965 57.3 29.38C57.2992 27.4037 57.0914 25.433 56.68 23.5C55.315 17.2779 51.8692 11.7072 46.9113 7.70747C41.9535 3.70775 35.78 1.51811 29.41 1.5Z" fill="black"/>
<path d="M40.19 13.79C40.4551 13.79 40.67 13.5751 40.67 13.31C40.67 13.0449 40.4551 12.83 40.19 12.83C39.9249 12.83 39.71 13.0449 39.71 13.31C39.71 13.5751 39.9249 13.79 40.19 13.79Z" fill="white"/>
<path d="M10.47 28.73C10.7351 28.73 10.95 28.5151 10.95 28.25C10.95 27.9849 10.7351 27.77 10.47 27.77C10.2049 27.77 9.98999 27.9849 9.98999 28.25C9.98999 28.5151 10.2049 28.73 10.47 28.73Z" fill="white"/>
<path d="M30.6199 29.21C30.885 29.21 31.0999 28.9951 31.0999 28.73C31.0999 28.4649 30.885 28.25 30.6199 28.25C30.3548 28.25 30.1399 28.4649 30.1399 28.73C30.1399 28.9951 30.3548 29.21 30.6199 29.21Z" fill="white"/>
<path d="M22.0999 48.71C22.365 48.71 22.5799 48.4951 22.5799 48.23C22.5799 47.9649 22.365 47.75 22.0999 47.75C21.8348 47.75 21.6199 47.9649 21.6199 48.23C21.6199 48.4951 21.8348 48.71 22.0999 48.71Z" fill="white"/>
<path d="M15.8999 14.92C16.165 14.92 16.3799 14.7051 16.3799 14.44C16.3799 14.1749 16.165 13.96 15.8999 13.96C15.6348 13.96 15.4199 14.1749 15.4199 14.44C15.4199 14.7051 15.6348 14.92 15.8999 14.92Z" fill="white"/>
<path d="M43.1899 46.11C43.6538 46.11 44.0299 45.7339 44.0299 45.27C44.0299 44.8061 43.6538 44.43 43.1899 44.43C42.7259 44.43 42.3499 44.8061 42.3499 45.27C42.3499 45.7339 42.7259 46.11 43.1899 46.11Z" fill="white"/>
<path d="M49.85 27.11C50.3139 27.11 50.69 26.7339 50.69 26.27C50.69 25.8061 50.3139 25.43 49.85 25.43C49.3861 25.43 49.01 25.8061 49.01 26.27C49.01 26.7339 49.3861 27.11 49.85 27.11Z" fill="white"/>
<path d="M15.06 43.08C15.5239 43.08 15.9 42.7039 15.9 42.24C15.9 41.7761 15.5239 41.4 15.06 41.4C14.5961 41.4 14.22 41.7761 14.22 42.24C14.22 42.7039 14.5961 43.08 15.06 43.08Z" fill="white"/>
<path d="M17.1999 36.83C16.3623 36.9209 15.5149 36.8343 14.713 36.576C13.911 36.3176 13.1725 35.8933 12.5454 35.3306C11.9184 34.7679 11.4168 34.0794 11.0735 33.31C10.7302 32.5406 10.5527 31.7075 10.5527 30.865C10.5527 30.0225 10.7302 29.1894 11.0735 28.42C11.4168 27.6506 11.9184 26.9621 12.5454 26.3994C13.1725 25.8367 13.911 25.4124 14.713 25.154C15.5149 24.8957 16.3623 24.8091 17.1999 24.9V36.83Z" fill="white"/>
<path d="M41.6099 36.83C43.0805 36.6705 44.4403 35.9733 45.4283 34.8723C46.4163 33.7714 46.9627 32.3443 46.9627 30.865C46.9627 29.3858 46.4163 27.9587 45.4283 26.8577C44.4403 25.7568 43.0805 25.0596 41.6099 24.9V36.83Z" fill="white"/>
<path d="M17.2 36.83C14.61 36.83 12.51 34.16 12.51 30.83C12.51 27.5 14.61 24.83 17.2 24.83V36.83Z" fill="#DAE4E5"/>
<path d="M41.6099 36.83C44.1999 36.83 46.2899 34.16 46.2899 30.83C46.2899 27.5 44.1999 24.83 41.6099 24.83V36.83Z" fill="#DAE4E5"/>
<path d="M41.6099 37.3C41.4852 37.3 41.3657 37.2505 41.2776 37.1623C41.1894 37.0742 41.1399 36.9546 41.1399 36.83V33.9C41.1425 33.7771 41.1932 33.6601 41.281 33.5741C41.3689 33.4881 41.487 33.44 41.6099 33.44C41.6703 33.44 41.7301 33.4519 41.7859 33.475C41.8417 33.4981 41.8924 33.532 41.9352 33.5747C41.9779 33.6174 42.0118 33.6681 42.0349 33.724C42.058 33.7798 42.0699 33.8396 42.0699 33.9V36.34C43.5286 36.34 44.9275 35.7605 45.959 34.7291C46.9904 33.6976 47.5699 32.2987 47.5699 30.84C47.5699 29.3813 46.9904 27.9824 45.959 26.9509C44.9275 25.9195 43.5286 25.34 42.0699 25.34V31.5C42.0712 31.5612 42.0603 31.6221 42.0378 31.6791C42.0153 31.7361 41.9816 31.788 41.9388 31.8317C41.8959 31.8755 41.8447 31.9103 41.7883 31.934C41.7318 31.9578 41.6712 31.97 41.6099 31.97C41.4852 31.97 41.3657 31.9205 41.2776 31.8323C41.1894 31.7442 41.1399 31.6246 41.1399 31.5V24.9C41.1399 24.7753 41.1894 24.6558 41.2776 24.5676C41.3657 24.4795 41.4852 24.43 41.6099 24.43C42.4763 24.3958 43.3407 24.537 44.1512 24.845C44.9617 25.153 45.7017 25.6215 46.3268 26.2224C46.9519 26.8233 47.4491 27.5442 47.7888 28.342C48.1285 29.1398 48.3036 29.9979 48.3036 30.865C48.3036 31.7321 48.1285 32.5902 47.7888 33.388C47.4491 34.1857 46.9519 34.9067 46.3268 35.5076C45.7017 36.1085 44.9617 36.577 44.1512 36.885C43.3407 37.193 42.4763 37.3341 41.6099 37.3Z" fill="black"/>
<path d="M39.8701 23.15C39.8701 17.74 35.1801 13.36 29.4001 13.36C23.6201 13.36 18.9301 17.74 18.9301 23.15L17.0601 22.58C17.0601 16.21 22.5901 11 29.4001 11C36.2101 11 41.7401 16.17 41.7401 22.54" fill="#415E6D"/>
<path d="M11.05 32.26C10.7596 32.2331 10.4898 32.0987 10.2934 31.8832C10.0969 31.6677 9.98804 31.3866 9.98804 31.095C9.98804 30.8034 10.0969 30.5223 10.2934 30.3068C10.4898 30.0913 10.7596 29.9569 11.05 29.93" fill="#74CE3A"/>
<path d="M17.2 37.3C15.5372 37.2344 13.9643 36.5278 12.8111 35.3282C11.6578 34.1285 11.0137 32.5291 11.0137 30.865C11.0137 29.2009 11.6578 27.6015 12.8111 26.4018C13.9643 25.2022 15.5372 24.4956 17.2 24.43C17.3229 24.4326 17.4399 24.4833 17.5258 24.5711C17.6118 24.659 17.66 24.7771 17.6599 24.9V36.83C17.66 36.9529 17.6118 37.071 17.5258 37.1588C17.4399 37.2467 17.3229 37.2974 17.2 37.3ZM16.7299 25.38C15.2713 25.38 13.8723 25.9595 12.8409 26.9909C11.8094 28.0224 11.2299 29.4213 11.2299 30.88C11.2299 32.3387 11.8094 33.7376 12.8409 34.7691C13.8723 35.8005 15.2713 36.38 16.7299 36.38V25.38Z" fill="black"/>
<path d="M11.05 32.49C10.8568 32.5064 10.6624 32.4825 10.479 32.4198C10.2956 32.3571 10.1272 32.257 9.98451 32.1259C9.84179 31.9948 9.72786 31.8354 9.64992 31.658C9.57198 31.4805 9.53174 31.2888 9.53174 31.095C9.53174 30.9012 9.57198 30.7095 9.64992 30.532C9.72786 30.3546 9.84179 30.1952 9.98451 30.0641C10.1272 29.933 10.2956 29.8329 10.479 29.7702C10.6624 29.7076 10.8568 29.6836 11.05 29.7C11.0802 29.7 11.1101 29.706 11.138 29.7175C11.1659 29.7291 11.1912 29.746 11.2126 29.7674C11.2339 29.7887 11.2509 29.8141 11.2624 29.842C11.274 29.8699 11.28 29.8998 11.28 29.93C11.28 29.991 11.2557 30.0495 11.2126 30.0926C11.1695 30.1358 11.111 30.16 11.05 30.16C10.8187 30.184 10.6044 30.2928 10.4487 30.4655C10.293 30.6382 10.2068 30.8625 10.2068 31.095C10.2068 31.3275 10.293 31.5518 10.4487 31.7245C10.6044 31.8972 10.8187 32.0061 11.05 32.03C11.111 32.03 11.1695 32.0542 11.2126 32.0974C11.2557 32.1405 11.28 32.199 11.28 32.26C11.28 32.321 11.2557 32.3795 11.2126 32.4226C11.1695 32.4658 11.111 32.49 11.05 32.49Z" fill="black"/>
<path d="M14.7199 34C14.6807 34.0003 14.6428 33.9862 14.6133 33.9604C14.5838 33.9346 14.5648 33.8989 14.5599 33.86L14.3399 32.33C14.3356 32.3095 14.3356 32.2884 14.3399 32.2679C14.3443 32.2475 14.3528 32.2282 14.3651 32.2112C14.3773 32.1943 14.393 32.1801 14.411 32.1695C14.4291 32.159 14.4491 32.1523 14.4699 32.15C14.5109 32.1441 14.5525 32.1544 14.5861 32.1787C14.6197 32.2029 14.6425 32.2392 14.6499 32.28L14.8799 33.81C14.8827 33.831 14.8813 33.8524 14.8757 33.8729C14.8702 33.8934 14.8606 33.9125 14.8476 33.9293C14.8346 33.946 14.8183 33.96 14.7998 33.9704C14.7813 33.9809 14.761 33.9875 14.7399 33.99L14.7199 34Z" fill="black"/>
<path d="M14 33.68C13.9608 33.6803 13.9228 33.6662 13.8934 33.6404C13.8639 33.6146 13.8449 33.5789 13.84 33.54L13.57 32C13.5665 31.9594 13.5777 31.9189 13.6015 31.8858C13.6254 31.8528 13.6603 31.8294 13.7 31.82C13.721 31.8172 13.7424 31.8186 13.7629 31.8242C13.7834 31.8297 13.8025 31.8393 13.8193 31.8523C13.836 31.8653 13.85 31.8816 13.8604 31.9001C13.8709 31.9185 13.8775 31.9389 13.88 31.96L14.11 33.49C14.1131 33.532 14.1005 33.5737 14.0746 33.607C14.0488 33.6402 14.0115 33.6627 13.97 33.67L14 33.68Z" fill="black"/>
<path d="M41.7399 23.32C41.6205 23.32 41.5061 23.2726 41.4217 23.1882C41.3373 23.1038 41.2899 22.9893 41.2899 22.87C41.2899 16.75 35.9599 11.77 29.3999 11.77C22.8399 11.77 17.5099 16.77 17.5099 22.87C17.5099 22.9893 17.4625 23.1038 17.3781 23.1882C17.2937 23.2726 17.1792 23.32 17.0599 23.32C16.9405 23.32 16.8261 23.2726 16.7417 23.1882C16.6573 23.1038 16.6099 22.9893 16.6099 22.87C16.6099 16.25 22.3499 10.87 29.3999 10.87C36.4499 10.87 42.1899 16.25 42.1899 22.87C42.1899 22.9893 42.1425 23.1038 42.0581 23.1882C41.9737 23.2726 41.8592 23.32 41.7399 23.32Z" fill="black"/>
<path d="M39.87 23.81C39.7693 23.81 39.6726 23.7699 39.6013 23.6987C39.5301 23.6274 39.4901 23.5308 39.4901 23.43C39.4901 18.24 35 14 29.4 14C23.8 14 19.32 18.22 19.32 23.41C19.3053 23.5014 19.2584 23.5846 19.1879 23.6447C19.1173 23.7048 19.0277 23.7377 18.935 23.7377C18.8424 23.7377 18.7528 23.7048 18.6822 23.6447C18.6117 23.5846 18.5648 23.5014 18.55 23.41C18.55 17.8 23.42 13.23 29.4 13.23C35.38 13.23 40.25 17.8 40.25 23.41C40.2528 23.4615 40.2449 23.5131 40.2271 23.5616C40.2092 23.61 40.1816 23.6543 40.1461 23.6917C40.1105 23.7291 40.0677 23.7589 40.0202 23.7793C39.9728 23.7996 39.9217 23.8101 39.87 23.81Z" fill="black"/>
<path d="M20.7099 16.59C20.6436 16.59 20.58 16.5637 20.5331 16.5168C20.4862 16.4699 20.4599 16.4063 20.4599 16.34C20.4453 16.2945 20.4453 16.2455 20.4599 16.2C21.1364 15.2365 22.063 14.4759 23.1399 14C23.1699 13.9853 23.2026 13.977 23.2359 13.9757C23.2693 13.9743 23.3025 13.9799 23.3336 13.9922C23.3646 14.0044 23.3928 14.023 23.4163 14.0467C23.4397 14.0704 23.458 14.0988 23.4699 14.13C23.4934 14.1925 23.4919 14.2616 23.4658 14.323C23.4398 14.3844 23.3911 14.4335 23.3299 14.46C22.365 14.908 21.5316 15.5968 20.9099 16.46C20.8916 16.4979 20.8633 16.53 20.8281 16.553C20.7928 16.5759 20.7519 16.5887 20.7099 16.59Z" fill="#8EAEBA"/>
<path d="M35.7399 14.6C35.6983 14.6172 35.6516 14.6172 35.6099 14.6C34.9036 14.1501 34.1488 13.7811 33.3599 13.5C33.3072 13.473 33.2657 13.4282 33.2429 13.3735C33.2201 13.3188 33.2174 13.2578 33.2355 13.2013C33.2535 13.1449 33.291 13.0967 33.3412 13.0653C33.3915 13.0339 33.4513 13.0214 33.5099 13.03C34.3442 13.3188 35.1401 13.7083 35.8799 14.19C35.9074 14.2072 35.9312 14.2298 35.9497 14.2565C35.9682 14.2831 35.9811 14.3132 35.9877 14.345C35.9942 14.3768 35.9942 14.4096 35.9877 14.4414C35.9813 14.4732 35.9684 14.5033 35.9499 14.53C35.9291 14.5665 35.8982 14.5962 35.861 14.6157C35.8238 14.6352 35.7818 14.6436 35.7399 14.64V14.6Z" fill="#8EAEBA"/>
<path d="M17.5999 22.24C18.0508 22.24 18.4832 22.4191 18.802 22.7379C19.1208 23.0567 19.2999 23.4891 19.2999 23.94V38.27C19.3039 38.4957 19.2629 38.72 19.1792 38.9298C19.0956 39.1395 18.971 39.3305 18.8127 39.4915C18.6545 39.6526 18.4657 39.7805 18.2575 39.8678C18.0492 39.9551 17.8257 40 17.5999 40C17.1508 40 16.7199 39.8223 16.4013 39.5056C16.0828 39.189 15.9025 38.7591 15.8999 38.31V23.94C15.8999 23.4891 16.079 23.0567 16.3978 22.7379C16.7166 22.4191 17.149 22.24 17.5999 22.24Z" fill="#415E6D"/>
<path d="M19.29 32.74V38.12C19.308 38.3535 19.2775 38.5883 19.2004 38.8094C19.1234 39.0306 19.0015 39.2335 18.8423 39.4054C18.6832 39.5772 18.4902 39.7143 18.2756 39.8081C18.0609 39.9019 17.8292 39.9503 17.595 39.9503C17.3608 39.9503 17.1291 39.9019 16.9145 39.8081C16.6998 39.7143 16.5069 39.5772 16.3477 39.4054C16.1886 39.2335 16.0667 39.0306 15.9896 38.8094C15.9126 38.5883 15.8821 38.3535 15.9 38.12V32.74C15.8821 32.9735 15.9126 33.2083 15.9896 33.4294C16.0667 33.6506 16.1886 33.8535 16.3477 34.0254C16.5069 34.1972 16.6998 34.3343 16.9145 34.4281C17.1291 34.5219 17.3608 34.5703 17.595 34.5703C17.8292 34.5703 18.0609 34.5219 18.2756 34.4281C18.4902 34.3343 18.6832 34.1972 18.8423 34.0254C19.0015 33.8535 19.1234 33.6506 19.2004 33.4294C19.2775 33.2083 19.308 32.9735 19.29 32.74Z" fill="#2E4751"/>
<path d="M41 22.24C41.4492 22.2426 41.879 22.4229 42.1957 22.7414C42.5123 23.06 42.6901 23.4909 42.69 23.94V38.27C42.6954 38.4953 42.6556 38.7193 42.5731 38.929C42.4905 39.1387 42.3669 39.3297 42.2094 39.4909C42.052 39.6521 41.8639 39.7802 41.6562 39.8676C41.4485 39.9551 41.2254 40.0001 41 40C40.5509 40 40.12 39.8223 39.8015 39.5056C39.483 39.189 39.3027 38.7591 39.3 38.31V23.94C39.3 23.7167 39.344 23.4957 39.4295 23.2894C39.5149 23.0832 39.6401 22.8958 39.798 22.7379C39.9558 22.58 40.1432 22.4548 40.3495 22.3694C40.5557 22.284 40.7768 22.24 41 22.24Z" fill="#415E6D"/>
<path d="M17.5999 40.18C17.0694 40.18 16.5607 39.9693 16.1856 39.5942C15.8106 39.2191 15.5999 38.7104 15.5999 38.18V23.88C15.5999 23.3496 15.8106 22.8409 16.1856 22.4658C16.5607 22.0907 17.0694 21.88 17.5999 21.88C18.1303 21.88 18.639 22.0907 19.0141 22.4658C19.3891 22.8409 19.5999 23.3496 19.5999 23.88V38.2C19.5946 38.727 19.3815 39.2306 19.007 39.6013C18.6325 39.9721 18.1268 40.18 17.5999 40.18ZM17.5999 22.46C17.2232 22.46 16.8621 22.6096 16.5958 22.8759C16.3295 23.1422 16.1799 23.5034 16.1799 23.88V38.2C16.2097 38.5548 16.3717 38.8853 16.6338 39.1263C16.8958 39.3672 17.2389 39.5009 17.5949 39.5009C17.9508 39.5009 18.2939 39.3672 18.5559 39.1263C18.818 38.8853 18.98 38.5548 19.0099 38.2V23.88C19.0112 23.694 18.9757 23.5096 18.9054 23.3374C18.8351 23.1651 18.7315 23.0085 18.6004 22.8765C18.4694 22.7445 18.3135 22.6398 18.1418 22.5683C17.97 22.4968 17.7859 22.46 17.5999 22.46Z" fill="black"/>
<path d="M42.72 32.74V38.12C42.7379 38.3535 42.7074 38.5883 42.6304 38.8094C42.5533 39.0306 42.4314 39.2335 42.2722 39.4054C42.1131 39.5772 41.9202 39.7143 41.7055 39.8081C41.4909 39.9019 41.2592 39.9503 41.025 39.9503C40.7907 39.9503 40.559 39.9019 40.3444 39.8081C40.1297 39.7143 39.9368 39.5772 39.7777 39.4054C39.6185 39.2335 39.4966 39.0306 39.4195 38.8094C39.3425 38.5883 39.312 38.3535 39.33 38.12V32.74C39.312 32.9735 39.3425 33.2083 39.4195 33.4294C39.4966 33.6506 39.6185 33.8535 39.7777 34.0254C39.9368 34.1972 40.1297 34.3343 40.3444 34.4281C40.559 34.5219 40.7907 34.5703 41.025 34.5703C41.2592 34.5703 41.4909 34.5219 41.7055 34.4281C41.9202 34.3343 42.1131 34.1972 42.2722 34.0254C42.4314 33.8535 42.5533 33.6506 42.6304 33.4294C42.7074 33.2083 42.7379 32.9735 42.72 32.74Z" fill="#2E4751"/>
<path d="M41 40.18C40.4696 40.18 39.9609 39.9693 39.5858 39.5942C39.2107 39.2191 39 38.7104 39 38.18V23.88C39 23.3496 39.2107 22.8409 39.5858 22.4658C39.9609 22.0907 40.4696 21.88 41 21.88C41.5304 21.88 42.0391 22.0907 42.4142 22.4658C42.7893 22.8409 43 23.3496 43 23.88V38.2C42.9947 38.727 42.7817 39.2306 42.4072 39.6013C42.0327 39.9721 41.527 40.18 41 40.18ZM41 22.46C40.8132 22.4587 40.6279 22.4945 40.455 22.5654C40.2821 22.6363 40.1251 22.7408 39.9929 22.8729C39.8608 23.0051 39.7563 23.1621 39.6854 23.335C39.6145 23.5079 39.5787 23.6932 39.58 23.88V38.2C39.5635 38.3958 39.5879 38.5929 39.6515 38.7789C39.7151 38.9648 39.8167 39.1355 39.9497 39.2801C40.0827 39.4248 40.2442 39.5403 40.4242 39.6193C40.6041 39.6983 40.7985 39.7391 40.995 39.7391C41.1915 39.7391 41.3859 39.6983 41.5658 39.6193C41.7458 39.5403 41.9073 39.4248 42.0403 39.2801C42.1733 39.1355 42.2749 38.9648 42.3385 38.7789C42.4021 38.5929 42.4265 38.3958 42.41 38.2V23.88C42.4113 23.694 42.3758 23.5096 42.3056 23.3374C42.2353 23.1651 42.1316 23.0085 42.0006 22.8765C41.8695 22.7445 41.7136 22.6398 41.5419 22.5683C41.3702 22.4968 41.186 22.46 41 22.46Z" fill="black"/>
<path d="M17.2 29C17.1336 29 17.0701 28.9737 17.0232 28.9268C16.9763 28.8799 16.95 28.8163 16.95 28.75V24.9C16.95 24.8337 16.9763 24.7701 17.0232 24.7232C17.0701 24.6764 17.1336 24.65 17.2 24.65C17.2663 24.65 17.3298 24.6764 17.3767 24.7232C17.4236 24.7701 17.45 24.8337 17.45 24.9V28.73C17.4527 28.7645 17.4483 28.7992 17.437 28.8318C17.4257 28.8645 17.4077 28.8945 17.3842 28.9199C17.3607 28.9453 17.3322 28.9655 17.3005 28.9793C17.2688 28.9931 17.2345 29.0001 17.2 29Z" fill="#8EAEBA"/>
<path d="M41 33.5C40.9337 33.5 40.8701 33.4736 40.8232 33.4268C40.7763 33.3799 40.75 33.3163 40.75 33.25V29.42C40.75 29.3537 40.7763 29.2901 40.8232 29.2432C40.8701 29.1963 40.9337 29.17 41 29.17C41.0663 29.17 41.1299 29.1963 41.1768 29.2432C41.2237 29.2901 41.25 29.3537 41.25 29.42V33.25C41.25 33.3163 41.2237 33.3799 41.1768 33.4268C41.1299 33.4736 41.0663 33.5 41 33.5Z" fill="#8EAEBA"/>
</g>
<defs>
<clipPath id="clip0_141_100">
<rect width="58.8" height="58.84" fill="white"/>
</clipPath>
</defs>
</svg>
