<svg width="64" height="64" viewBox="0 0 64 64" fill="none" xmlns="http://www.w3.org/2000/svg">
<g clip-path="url(#clip0_31_296)">
<path d="M32 0C40.8385 0 48.8385 3.58333 54.625 9.375C60.4167 15.1667 64 23.1667 64 32C64 40.8385 60.4167 48.8385 54.625 54.625C48.8333 60.4167 40.8333 64 32 64C23.1667 64 15.1615 60.4167 9.375 54.625C3.58333 48.8385 0 40.8385 0 32C0 23.1615 3.58333 15.1615 9.375 9.375C15.1615 3.58333 23.1615 0 32 0ZM24.2135 45.3281C27.3385 51.8438 36.8125 52.0729 39.8073 45.3646C38.9896 44.5365 38.3854 43.6563 37.7865 42.776C37.6875 42.6302 37.5885 42.4896 37.4896 42.3438C36.0469 43.4896 34.2917 44.2188 32.0052 44.2135C29.5417 44.2083 27.6875 43.2656 26.1667 41.875C26.0781 41.7917 25.9844 41.7083 25.8958 41.6198C25.6771 42.224 25.401 42.9479 25.1042 43.625C24.8177 44.276 24.5104 44.8854 24.2135 45.3281ZM48.2604 56.1615L48.9688 48.6198C46.349 48.1094 43.5417 47.5573 40.6406 45.8854C38.4688 53.1198 26.7969 53.9792 23.5104 46.0729C20.9063 47.3854 18.2552 48.1354 15.2344 48.599L16.2604 56.5C20.7969 59.4219 26.2031 61.1198 32.0052 61.1198C38.0208 61.1198 43.6146 59.2917 48.2604 56.1615ZM8.625 49.3698L8.75 49.2969C11.8542 47.5677 19.9323 46.9948 23.2865 44.6563C23.5313 44.2865 23.7969 43.75 24.0521 43.1667C24.4375 42.2865 24.7865 41.3281 25.0104 40.6719C24.0729 39.5677 23.2708 38.3229 22.5 37.0938L19.9583 33.0521C19.0313 31.6667 18.5469 30.401 18.5156 29.3594C18.5 28.8698 18.5833 28.4271 18.7656 28.0365C18.9531 27.625 19.2448 27.2865 19.6406 27.0208C19.8229 26.8958 20.0313 26.7917 20.2552 26.7083C20.0885 24.5156 20.0313 21.7552 20.1354 19.4427C20.1875 18.8958 20.2969 18.3438 20.4479 17.7969C21.099 15.4792 22.724 13.6094 24.7396 12.3281C25.849 11.6198 27.0677 11.0885 28.3385 10.7292C29.1458 10.5 27.651 7.92188 28.4844 7.83333C32.5208 7.41667 39.0469 11.1042 41.8646 14.151C43.276 15.6771 44.1615 17.7031 44.3542 20.3802L44.1979 26.974C44.901 27.1875 45.3542 27.6354 45.5365 28.3594C45.7396 29.1615 45.5208 30.2917 44.8385 31.8281C44.8281 31.8542 44.8125 31.8854 44.7969 31.9115L41.901 36.6823C40.8385 38.4323 39.7552 40.1927 38.349 41.5781C38.474 41.7604 38.6042 41.9427 38.7292 42.1302C39.3021 42.9688 39.8802 43.8125 40.6198 44.5625C40.6458 44.5885 40.6667 44.6146 40.6823 44.6406C44.0156 46.9948 52.1302 47.5677 55.2448 49.3021L55.3698 49.375C58.9792 44.526 61.1146 38.5156 61.1146 32.0052C61.1146 23.9635 57.8542 16.6823 52.5833 11.4167C47.3229 6.14063 40.0417 2.88021 32 2.88021C23.9583 2.88021 16.6771 6.14063 11.4115 11.4115C6.14063 16.6771 2.88021 23.9583 2.88021 32C2.88021 38.5104 5.01563 44.5208 8.625 49.3698ZM21.724 27.8854C21.1615 27.9063 20.7344 28.026 20.4427 28.2188C20.276 28.3281 20.1563 28.474 20.0781 28.6406C19.9896 28.8281 19.9531 29.0573 19.9583 29.3229C19.9792 30.0938 20.3854 31.1042 21.1667 32.2708L21.1771 32.2865L23.7188 36.3281C24.7396 37.9479 25.8073 39.599 27.1354 40.8125C28.4115 41.9792 29.9583 42.7708 32.0104 42.776C34.2292 42.7813 35.849 41.9583 37.1667 40.7292C38.5365 39.4479 39.6146 37.6927 40.6823 35.9375L43.5469 31.224C44.0781 30.0052 44.276 29.1927 44.151 28.7135C44.0781 28.4271 43.7656 28.2917 43.2292 28.2604C43.1146 28.2552 43 28.2552 42.8802 28.2552C42.7552 28.2604 42.6198 28.2656 42.4792 28.2813C42.401 28.2865 42.3281 28.2813 42.2604 28.2656C42.0052 28.2813 41.7448 28.2604 41.474 28.224L42.4531 23.8854C35.1823 25.0313 29.7396 19.6302 22.0521 22.8073L22.6042 27.9219C22.2865 27.9375 21.9948 27.9271 21.724 27.8854Z" fill="#131313"/>
</g>
<defs>
<clipPath id="clip0_31_296">
<rect width="64" height="64" fill="white"/>
</clipPath>
</defs>
</svg>
