<svg width="44" height="64" viewBox="0 0 44 64" fill="none" xmlns="http://www.w3.org/2000/svg">
<g clip-path="url(#clip0_3_29)">
<path d="M0.786495 0.411458H22.4879H23.2744V1.25521V63.1563V64H22.4879H0.786495H0V63.1563V1.25521V0.411458H0.786495ZM43.7912 16.276V63.1563H28.9255V16.276H28.7459L29.1877 15.3073L35.5865 1.20313L36.1351 0L36.7128 1.19271L43.5242 15.2917L44 16.276H43.7912ZM37.5867 5.93229H34.8388L30.7558 14.9271H41.9318L37.5867 5.93229ZM2.75759 58.75H6.14145V60.4375H2.75759V58.75ZM2.75759 55.5052H6.14145V57.1927H2.75759V55.5052ZM2.75759 52.2604H6.14145V53.9479H2.75759V52.2604ZM2.75759 49.0156H6.14145V50.7031H2.75759V49.0156ZM2.75759 45.7708H6.14145V47.4583H2.75759V45.7708ZM2.75759 42.526H8.38442V44.2135H2.75759V42.526ZM2.75759 39.2813H6.14145V40.9688H2.75759V39.2813ZM2.75759 36.0365H6.14145V37.724H2.75759V36.0365ZM2.75759 32.7969H6.14145V34.4844H2.75759V32.7969ZM2.75759 29.5521H6.14145V31.2396H2.75759V29.5521ZM2.75759 26.3073H6.14145V27.9948H2.75759V26.3073ZM2.75759 23.0625H8.38442V24.75H2.75759V23.0625ZM2.75759 19.8177H6.14145V21.5052H2.75759V19.8177ZM2.75759 16.5729H6.14145V18.2604H2.75759V16.5729ZM2.75759 13.3281H6.14145V15.0156H2.75759V13.3281ZM2.75759 10.0833H6.14145V11.7708H2.75759V10.0833ZM2.75759 6.84375H6.14145V8.53125H2.75759V6.84375ZM2.75759 3.59896H8.38442V5.28646H2.75759V3.59896ZM21.7014 2.09896H1.57299V62.3125H21.7014V2.09896Z" fill="#131313"/>
</g>
<defs>
<clipPath id="clip0_3_29">
<rect width="44" height="64" fill="white"/>
</clipPath>
</defs>
</svg>
