<?xml version="1.0" encoding="utf-8"?>
<svg id="master-artboard" viewBox="0 0 1400 980" version="1.1" xmlns="http://www.w3.org/2000/svg" x="0px" y="0px" style="enable-background:new 0 0 336 235.2;" width="1400px" height="980px"><rect id="ee-background" x="0" y="0" width="1400" height="980" style="fill: white; fill-opacity: 0; pointer-events: none;"/><defs><style id="ee-google-fonts">@import url(https://fonts.googleapis.com/css?family=Audiowide:400);</style></defs>





















































































































































<path d="M 70.03484344482422 43.6967658996582" style="fill: rgb(66, 62, 89); fill-opacity: 1; stroke: rgb(0, 0, 0); stroke-opacity: 1; stroke-width: 0; paint-order: fill;"/><g transform="matrix(1.853778406775254, 0, 0, 1.853778406775254, 130.66097742637885, 0)"><path d="M491.58023,534.58773l-80.71652,37.05853a4.90689,4.90689,0,1,1-4.09475-8.9187L487.48548,525.669a4.90689,4.90689,0,0,1,4.09475,8.9187Z" transform="matrix(1, 0, 0, 1, -262.86782497230865, -344.5841993398644)" fill="#fff"/><path d="M732.62106,691.62827H373.78488a19.277,19.277,0,0,1-19.25537-19.25537V479.49936A19.27735,19.27735,0,0,1,373.78488,460.244H732.62106a19.27735,19.27735,0,0,1,19.25537,19.25537V672.3729A19.277,19.277,0,0,1,732.62106,691.62827Z" transform="matrix(1, 0, 0, 1, -262.86782497230865, -344.5841993398644)" fill="#fff"/><path d="M373.78488,473.244a6.26246,6.26246,0,0,0-6.25537,6.25537V672.3729a6.26246,6.26246,0,0,0,6.25537,6.25537H732.62106a6.26246,6.26246,0,0,0,6.25537-6.25537V479.49936a6.26246,6.26246,0,0,0-6.25537-6.25537Z" transform="matrix(1.0580551624298093, 0, 0, 1.1040397882461548, -295.42507594887115, -404.663194090841)" fill="#20cdac"/><path d="M732.62106,691.62827H373.78488a19.277,19.277,0,0,1-19.25537-19.25537V479.49936A19.27735,19.27735,0,0,1,373.78488,460.244H732.62106a19.27735,19.27735,0,0,1,19.25537,19.25537V672.3729A19.277,19.277,0,0,1,732.62106,691.62827ZM373.78488,462.244a17.2749,17.2749,0,0,0-17.25537,17.25537V672.3729a17.2749,17.2749,0,0,0,17.25537,17.25537H732.62106a17.2749,17.2749,0,0,0,17.25537-17.25537V479.49936A17.2749,17.2749,0,0,0,732.62106,462.244Z" transform="matrix(1, 0, 0, 1, -262.86782497230865, -344.5841993398644)" fill="#3f3d56"/><path d="M691.75436,585.34262H406.68063a11.14658,11.14658,0,0,1-10.47778-7.38818l-36.45264-102.27a11.12377,11.12377,0,0,1,10.4624-14.8584l365.59717-.562a11.12473,11.12473,0,0,1,10.59277,14.56836l.041.01758L701.97848,578.60141A11.11021,11.11021,0,0,1,691.75436,585.34262ZM735.8254,462.264l-365.6101.562a9.12351,9.12351,0,0,0-8.58118,12.18653l36.45251,102.27a9.142,9.142,0,0,0,8.594,6.06006H691.75436a9.11257,9.11257,0,0,0,8.38574-5.52929l44.07105-102.832.36718.15771-.36718-.15771A9.12385,9.12385,0,0,0,735.8254,462.264Z" transform="matrix(1, 0, 0, 1, -262.86782497230865, -344.5841993398644)" fill="#3f3d56"/><path d="M476.96954,663.79276H388.15236a4.90689,4.90689,0,1,1,0-9.81378h88.81718a4.90689,4.90689,0,1,1,0,9.81378Z" transform="matrix(1, 0, 0, 1, -262.86782497230865, -344.5841993398644)" fill="#fff"/><path d="M578.42321,584.34286a25.22024,25.22024,0,0,1-50.44048,0" transform="matrix(1, 0, 0, 1, -262.86782497230865, -344.5841993398644)" fill="#3f3d56"/></g><path d="M 440.65545654296875 325.490966796875" style="fill: rgb(66, 62, 89); fill-opacity: 1; stroke: rgb(0, 0, 0); stroke-opacity: 1; stroke-width: 0; paint-order: stroke;"/></svg>