<svg xmlns="http://www.w3.org/2000/svg" viewBox="0 0 750 500"><g id="freepik--Floor--inject-16"><path d="M702,465.15c0,.14-149.08.26-332.93.26s-333-.12-333-.26,149.05-.26,333-.26S702,465,702,465.15Z" style="fill:#263238"></path></g><g id="freepik--Documents--inject-16"><path d="M129.3,249.93,73,262.2a7.21,7.21,0,0,1-8.58-5.51l-17-77.9A7.22,7.22,0,0,1,53,170.21l35.7-7.78,33.84,22.46,12.3,56.47A7.19,7.19,0,0,1,129.3,249.93Z" style="fill:#0C7EAC"></path><g style="opacity:0.2"><path d="M62.1,227.83h72a0,0,0,0,1,0,0v20.35a8.21,8.21,0,0,1-8.21,8.21H70.19a8.09,8.09,0,0,1-8.09-8.09V227.83a0,0,0,0,1,0,0Z" transform="translate(-49.31 26.45) rotate(-12.3)"></path></g><path d="M88.75,248.39l1.31-2.51a3.24,3.24,0,0,0,2.88,1c1.28-.28,1.78-1.19,1.45-2.71L93,237.58l-4.84,1.06-.56-2.56,8-1.75,1.94,8.94c.75,3.4-.6,5.44-3.85,6.15A5.64,5.64,0,0,1,88.75,248.39Z" style="fill:#fafafa"></path><path d="M100.27,246.71l.54-2.43a7.48,7.48,0,0,0,3.9.22c1.42-.31,1.87-.8,1.74-1.39-.38-1.73-6.38,1.44-7.31-2.79-.43-2,1.07-3.82,4.16-4.5a9,9,0,0,1,4.27,0l-.55,2.41a6.25,6.25,0,0,0-3.22-.12c-1.38.3-1.87.86-1.75,1.41.39,1.81,6.41-1.34,7.32,2.84.42,2-1.1,3.76-4.27,4.45A9.34,9.34,0,0,1,100.27,246.71Z" style="fill:#fafafa"></path><path d="M71.6,217.93l1.64-3.07a6.8,6.8,0,0,0,6.25,1.94c3-.65,4.16-2.82,3.38-6.39l-3.25-14.95L70,197.55l-.72-3.31,13.39-2.91L86.6,209.4c1.29,5.93-1,9.49-6.4,10.68A9.55,9.55,0,0,1,71.6,217.93Z" style="fill:#fafafa"></path><path d="M92.68,214.8l.9-3.22a13.21,13.21,0,0,0,7.53.55c3.38-.74,4.57-2.07,4.19-3.78-1-4.53-12.87,2.17-14.62-5.86-.79-3.61,1.91-6.75,7.09-7.88a15,15,0,0,1,7.74.22l-.93,3.24a10.72,10.72,0,0,0-6.17-.33c-3.2.69-4.5,2.21-4.15,3.81,1,4.76,13-1.91,14.68,5.93.8,3.65-2,6.7-7.41,7.87C98.18,216.08,94.65,215.77,92.68,214.8Z" style="fill:#fafafa"></path><g style="opacity:0.30000000000000004"><path d="M88.66,162.43l4.78,21.93a6.7,6.7,0,0,0,8,5.12l21.09-4.59Z" style="fill:#fff"></path></g><g style="opacity:0.2"><path d="M94.14,186.22s.88,5.38,7.32,5.81h.73c2.86-.11,21.68-.83,21.59-1.25s-1.28-5.89-1.28-5.89l-21.09,4.59S96.11,190.45,94.14,186.22Z"></path></g><path d="M674.23,172.41l-64.41-7.74a8.13,8.13,0,0,1-7.09-9l10.72-89.15a8.12,8.12,0,0,1,9-7.09l40.85,4.91L691,100.7l-7.77,64.62A8.12,8.12,0,0,1,674.23,172.41Z" style="fill:#0C7EAC"></path><g style="opacity:0.2"><path d="M603.39,136.48H684.5a0,0,0,0,1,0,0v23.15a9,9,0,0,1-9,9H612.55a9.15,9.15,0,0,1-9.15-9.15v-23a0,0,0,0,1,0,0Z" transform="translate(22.82 -75.78) rotate(6.86)"></path></g><g style="opacity:0.2"><path d="M663.33,64.31l-3,25.09a7.55,7.55,0,0,0,6.59,8.4L691,100.7Z" style="fill:#fff"></path></g><g style="opacity:0.2"><path d="M660.38,91.64s-1,6,5.63,8.88a6.55,6.55,0,0,0,.78.28c3.08.94,23.37,7.12,23.43,6.65s.81-6.75.81-6.75L666.9,97.8S660.9,96.87,660.38,91.64Z"></path></g><path d="M627,148.45c.46-3.78,3.68-6.13,7.58-5.66a6.51,6.51,0,0,1,4.89,2.84l-2.07,1.49a4.06,4.06,0,0,0-3-1.85,4,4,0,0,0-1,8,4,4,0,0,0,3.33-1.11l1.65,1.94A6.93,6.93,0,0,1,627,148.45Z" style="fill:#fafafa"></path><path d="M639.18,155l1.25-2.06a7.44,7.44,0,0,0,4,1.8c1.72.21,2.49-.28,2.58-1.05.28-2.34-7.19-1.61-6.63-6.26.25-2.13,2.18-3.69,5.74-3.27a8.43,8.43,0,0,1,4.22,1.64l-1.16,2.09a7.08,7.08,0,0,0-3.35-1.4c-1.72-.21-2.46.36-2.56,1.14-.27,2.31,7.2,1.59,6.65,6.19-.26,2.09-2.21,3.68-5.78,3.24A9,9,0,0,1,639.18,155Z" style="fill:#fafafa"></path><path d="M650.59,156.39l1.25-2.07a7.36,7.36,0,0,0,4,1.8c1.72.21,2.49-.28,2.58-1.05.28-2.34-7.19-1.61-6.63-6.26.25-2.13,2.18-3.69,5.74-3.26a8.33,8.33,0,0,1,4.22,1.63l-1.16,2.09a7.15,7.15,0,0,0-3.36-1.4c-1.71-.21-2.45.36-2.55,1.14-.27,2.31,7.2,1.6,6.65,6.19-.26,2.1-2.21,3.68-5.78,3.25A9,9,0,0,1,650.59,156.39Z" style="fill:#fafafa"></path><path d="M636,108.41c1.27.56,1.78,1.47,1.54,3.45l-.56,4.6a1.92,1.92,0,0,0,1.85,2.39l.52.06-.43,3.51-1.66-.2c-3.6-.44-5.22-2.5-4.82-5.81l.62-5.2a1.19,1.19,0,0,0-1.1-1.51l-.95-.11.42-3.51,1,.11a1.19,1.19,0,0,0,1.43-1.2l.63-5.21c.39-3.31,2.46-4.92,6.05-4.49l1.67.2L641.69,99l-.52-.06a1.9,1.9,0,0,0-2.35,1.87l-.56,4.61C638,107.4,637.32,108.16,636,108.41Z" style="fill:#fafafa"></path><path d="M667.17,110.38l-.42,3.51-1-.11c-.77-.1-1.31.28-1.42,1.2l-.63,5.2c-.4,3.31-2.46,4.93-6.06,4.5l-1.67-.2.43-3.51.51.06a1.9,1.9,0,0,0,2.36-1.87l.55-4.61c.24-2,1-2.74,2.32-3-1.28-.56-1.78-1.47-1.54-3.45l.55-4.61a1.9,1.9,0,0,0-1.84-2.38l-.52-.06.42-3.51,1.67.2c3.6.43,5.22,2.5,4.82,5.8l-.63,5.21a1.2,1.2,0,0,0,1.1,1.51Z" style="fill:#fafafa"></path></g><g id="freepik--Device--inject-16"><path d="M602.83,462.66h-456A27.7,27.7,0,0,1,119.13,435V137.76A20.88,20.88,0,0,1,140,116.88H610.66a19.87,19.87,0,0,1,19.87,19.87V435A27.7,27.7,0,0,1,602.83,462.66Z" style="fill:#ebebeb"></path><path d="M602.83,462.66l1.09-.07a22.8,22.8,0,0,0,3.21-.33,27.46,27.46,0,0,0,11.61-4.72,27,27,0,0,0,6.57-6.55,27.66,27.66,0,0,0,4.51-10.21c.2-1,.33-2,.49-3.06s.13-2.13.13-3.22v-6.81q0-7,0-15c0-42.33,0-103.59-.09-179.28q0-28.38,0-59.4,0-15.5,0-31.6v-4a33.61,33.61,0,0,0-.16-4,19.41,19.41,0,0,0-2.58-7.58,19.75,19.75,0,0,0-12.91-9.28c-2.69-.6-5.5-.36-8.31-.41H472.66l-325.58,0h-5.41c-.9,0-1.8,0-2.69,0a18.22,18.22,0,0,0-2.65.3,20.54,20.54,0,0,0-15.6,13,21.57,21.57,0,0,0-1.23,5.13c-.13,1.75-.12,3.54-.11,5.33v42.48q0,42.19,0,83.08c0,54.46,0,107,0,157v9.35c0,.78,0,1.56,0,2.33l.12,2.3a27.66,27.66,0,0,0,.83,4.52,26.92,26.92,0,0,0,10,14.83,27.07,27.07,0,0,0,8,4.17,29.87,29.87,0,0,0,8.84,1.36H234l123.81,0,245,.19-245,.18-123.81,0H147.15a30.48,30.48,0,0,1-9-1.38,27.52,27.52,0,0,1-8.1-4.24,28.55,28.55,0,0,1-6.37-6.65,28,28,0,0,1-3.83-8.44,28.66,28.66,0,0,1-.85-4.6l-.11-2.34c0-.78,0-1.55,0-2.33v-9.35c0-50.05,0-102.58,0-157V141c0-1.79,0-3.57.11-5.38a21.59,21.59,0,0,1,1.26-5.26,21,21,0,0,1,16-13.34,17.7,17.7,0,0,1,2.72-.31c.91-.06,1.81,0,2.71,0h5.41l325.58,0h133.7c2.79.06,5.63-.19,8.4.43a20.12,20.12,0,0,1,15.82,17.23,34.79,34.79,0,0,1,.16,4.07v4q0,16.11,0,31.6,0,31,0,59.4c0,75.69-.06,137-.08,179.28q0,7.94,0,15c0,2.34,0,4.61,0,6.81,0,1.09-.1,2.17-.14,3.23s-.29,2.08-.49,3.08a28,28,0,0,1-4.56,10.26,27.61,27.61,0,0,1-18.28,11.24,20.59,20.59,0,0,1-3.22.3Z" style="fill:#263238"></path><path d="M620.78,465.15H122.86a28.07,28.07,0,0,1-28.07-28.07H648.85A28.07,28.07,0,0,1,620.78,465.15Z" style="fill:#ebebeb"></path><path d="M620.78,465.15l.74,0,2.2-.13a30.15,30.15,0,0,0,8.3-2.23,28.41,28.41,0,0,0,5.46-3.22,26.86,26.86,0,0,0,5.44-5.35,26.58,26.58,0,0,0,4.24-7.82c.12-.38.29-.75.39-1.14l.3-1.18c.11-.4.21-.8.31-1.21s.13-.83.2-1.24a18,18,0,0,0,.29-2.57c0-.43.05-.87.07-1.31l0-.34v-.25c0-.06.17.16,0,.07h-.67L526,437.27l-403.07.07H94.79l.26-.26a28.57,28.57,0,0,0,3.45,13.41,27.91,27.91,0,0,0,1.88,2.92l1.05,1.39,1.17,1.29.58.64.64.59,1.28,1.16c.46.36.93.7,1.39,1a12.37,12.37,0,0,0,1.42,1,27.48,27.48,0,0,0,13,4.28c2.27.17,4.6.07,6.9.1H291L463.1,465l115.49.08,31.3.05,8.13,0,2.76,0-2.76,0-8.13,0-31.3.05-115.49.08L291,465.39H127.77c-2.31,0-4.6.07-6.94-.1a27.9,27.9,0,0,1-13.2-4.37,11.69,11.69,0,0,1-1.45-1c-.47-.35-1-.69-1.41-1.06l-1.3-1.19-.66-.59-.59-.66L101,455.13,100,453.72a32.15,32.15,0,0,1-1.92-3,29.12,29.12,0,0,1-3.51-13.66l.26-.26h28.09L526,436.9l122.18.08h.67c-.06-.09.19.12.15.13v.26l0,.33c0,.45,0,.89-.07,1.33a18.36,18.36,0,0,1-.3,2.58c-.07.42-.12.84-.2,1.25l-.32,1.21c-.1.4-.2.8-.31,1.19s-.26.77-.39,1.15a26.59,26.59,0,0,1-4.29,7.85,26.87,26.87,0,0,1-5.48,5.37,28.26,28.26,0,0,1-5.5,3.2,29.73,29.73,0,0,1-8.33,2.19C621.78,465.12,620.78,465.15,620.78,465.15Z" style="fill:#263238"></path><polygon points="324.42 437.08 331.29 448.26 428.04 448.26 434.42 437.08 324.42 437.08" style="fill:#fff"></polygon><path d="M153.32,132.52H507.08a0,0,0,0,1,0,0v288a0,0,0,0,1,0,0H156.45a19.95,19.95,0,0,1-19.95-19.95V149.34A16.82,16.82,0,0,1,153.32,132.52Z" style="fill:#455a64"></path><path d="M217.38,132.52H142.69a6.76,6.76,0,0,0-6.76,6.76V411.36a9.18,9.18,0,0,0,9.17,9.17h69.41a2.88,2.88,0,0,0,2.87-2.88V132.52" style="fill:#263238"></path><path d="M163.07,153.85a5.07,5.07,0,1,1-5.07-5.06A5.06,5.06,0,0,1,163.07,153.85Z" style="fill:#455a64"></path><circle cx="171.64" cy="153.85" r="5.06" style="fill:#455a64"></circle><circle cx="186.23" cy="153.85" r="5.06" style="fill:#455a64"></circle><path d="M344.55,157.62H243.08a5,5,0,0,1-5-5h0a4.94,4.94,0,0,1,5-4.95H344.55a4.94,4.94,0,0,1,4.95,4.95h0A5,5,0,0,1,344.55,157.62Z" style="fill:#ebebeb"></path><path d="M195.29,222.84H160.54a3.57,3.57,0,0,1-3.57-3.57h0a3.57,3.57,0,0,1,3.57-3.57h34.75a3.57,3.57,0,0,1,3.57,3.57h0A3.57,3.57,0,0,1,195.29,222.84Z" style="fill:#455a64"></path><path d="M288.64,186H255.73a3.57,3.57,0,0,1-3.57-3.58h0a3.57,3.57,0,0,1,3.57-3.57h32.91a3.57,3.57,0,0,1,3.57,3.57h0A3.57,3.57,0,0,1,288.64,186Z" style="fill:#263238"></path><path d="M288.64,204.65H255.73a3.57,3.57,0,0,1-3.57-3.57h0a3.57,3.57,0,0,1,3.57-3.57h32.91a3.57,3.57,0,0,1,3.57,3.57h0A3.57,3.57,0,0,1,288.64,204.65Z" style="fill:#263238"></path><g style="opacity:0.2"><path d="M288.64,224H255.73a3.57,3.57,0,0,1-3.57-3.57h0a3.57,3.57,0,0,1,3.57-3.57h32.91a3.57,3.57,0,0,1,3.57,3.57h0A3.57,3.57,0,0,1,288.64,224Z"></path></g><path d="M274.6,261.31H255.73a3.57,3.57,0,0,1-3.57-3.57h0a3.57,3.57,0,0,1,3.57-3.57H274.6a3.56,3.56,0,0,1,3.57,3.57h0A3.57,3.57,0,0,1,274.6,261.31Z" style="fill:#263238"></path><path d="M274.6,280.67H255.73a3.57,3.57,0,0,1-3.57-3.58h0a3.57,3.57,0,0,1,3.57-3.57H274.6a3.57,3.57,0,0,1,3.57,3.57h0A3.57,3.57,0,0,1,274.6,280.67Z" style="fill:#263238"></path><g style="opacity:0.2"><path d="M330.69,280.67h-34.6a3.57,3.57,0,0,1-3.57-3.58h0a3.57,3.57,0,0,1,3.57-3.57h34.6a3.57,3.57,0,0,1,3.57,3.57h0A3.57,3.57,0,0,1,330.69,280.67Z"></path></g><path d="M311.12,297.88H276.51a3.57,3.57,0,0,1-3.57-3.57h0a3.57,3.57,0,0,1,3.57-3.57h34.61a3.57,3.57,0,0,1,3.57,3.57h0A3.57,3.57,0,0,1,311.12,297.88Z" style="fill:#263238"></path><rect x="292.58" y="310.37" width="28.64" height="7.14" rx="3.57" style="fill:#0C7EAC"></rect><path d="M317.65,356h-21.5a3.57,3.57,0,0,1-3.57-3.58h0a3.57,3.57,0,0,1,3.57-3.57h21.5a3.57,3.57,0,0,1,3.57,3.57h0A3.57,3.57,0,0,1,317.65,356Z" style="fill:#0C7EAC"></path><path d="M317.65,396.64h-21.5a3.57,3.57,0,0,1-3.57-3.57h0a3.57,3.57,0,0,1,3.57-3.57h21.5a3.57,3.57,0,0,1,3.57,3.57h0A3.57,3.57,0,0,1,317.65,396.64Z" style="fill:#0C7EAC"></path><g style="opacity:0.2"><path d="M370.51,396.64h-37.7a3.57,3.57,0,0,1-3.57-3.57h0a3.57,3.57,0,0,1,3.57-3.57h37.7a3.57,3.57,0,0,1,3.57,3.57h0A3.57,3.57,0,0,1,370.51,396.64Z"></path></g><g style="opacity:0.2"><path d="M396.89,396.64h-5.43a3.57,3.57,0,0,1-3.57-3.57h0a3.57,3.57,0,0,1,3.57-3.57h5.43a3.57,3.57,0,0,1,3.57,3.57h0A3.57,3.57,0,0,1,396.89,396.64Z"></path></g><g style="opacity:0.2"><path d="M368.25,356H336.39a3.57,3.57,0,0,1-3.57-3.58h0a3.57,3.57,0,0,1,3.57-3.57h31.86a3.57,3.57,0,0,1,3.57,3.57h0A3.57,3.57,0,0,1,368.25,356Z"></path></g><g style="opacity:0.2"><path d="M438.11,373.84H336.39a3.57,3.57,0,0,1-3.57-3.57h0a3.57,3.57,0,0,1,3.57-3.57H438.11a3.57,3.57,0,0,1,3.57,3.57h0A3.57,3.57,0,0,1,438.11,373.84Z"></path></g><g style="opacity:0.2"><path d="M449.85,356H384.92a3.57,3.57,0,0,1-3.57-3.58h0a3.57,3.57,0,0,1,3.57-3.57h64.93a3.57,3.57,0,0,1,3.58,3.57h0A3.58,3.58,0,0,1,449.85,356Z"></path></g><g style="opacity:0.2"><rect x="330.58" y="310.37" width="34.05" height="7.14" rx="3.57"></rect></g><g style="opacity:0.2"><rect x="374.08" y="310.37" width="13.83" height="7.14" rx="3.57"></rect></g><g style="opacity:0.2"><rect x="398.42" y="310.37" width="40.78" height="7.14" rx="3.57"></rect></g><path d="M334.56,297.88h-7.71a3.57,3.57,0,0,1-3.57-3.57h0a3.57,3.57,0,0,1,3.57-3.57h7.71a3.57,3.57,0,0,1,3.57,3.57h0A3.57,3.57,0,0,1,334.56,297.88Z" style="fill:#263238"></path><g style="opacity:0.2"><path d="M399.88,297.88H350.79a3.57,3.57,0,0,1-3.57-3.57h0a3.57,3.57,0,0,1,3.57-3.57h49.09a3.57,3.57,0,0,1,3.57,3.57h0A3.57,3.57,0,0,1,399.88,297.88Z"></path></g><g style="opacity:0.2"><path d="M341.37,186H308.46a3.57,3.57,0,0,1-3.57-3.58h0a3.57,3.57,0,0,1,3.57-3.57h32.91a3.57,3.57,0,0,1,3.57,3.57h0A3.57,3.57,0,0,1,341.37,186Z"></path></g><g style="opacity:0.2"><path d="M383.77,204.65H308.46a3.57,3.57,0,0,1-3.57-3.57h0a3.56,3.56,0,0,1,3.57-3.57h75.31a3.57,3.57,0,0,1,3.57,3.57h0A3.57,3.57,0,0,1,383.77,204.65Z"></path></g><g style="opacity:0.2"><path d="M464.86,224H308.46a3.57,3.57,0,0,1-3.57-3.57h0a3.57,3.57,0,0,1,3.57-3.57h156.4a3.57,3.57,0,0,1,3.57,3.57h0A3.57,3.57,0,0,1,464.86,224Z"></path></g><g style="opacity:0.2"><path d="M382.2,237.57H308.46a3.57,3.57,0,0,1-3.57-3.57h0a3.57,3.57,0,0,1,3.57-3.57H382.2a3.57,3.57,0,0,1,3.57,3.57h0A3.57,3.57,0,0,1,382.2,237.57Z"></path></g><g style="opacity:0.2"><path d="M367.12,261.31H293.37a3.57,3.57,0,0,1-3.57-3.57h0a3.57,3.57,0,0,1,3.57-3.57h73.75a3.57,3.57,0,0,1,3.57,3.57h0A3.57,3.57,0,0,1,367.12,261.31Z"></path></g><g style="opacity:0.2"><path d="M408.4,261.31H383.68a3.57,3.57,0,0,1-3.57-3.57h0a3.57,3.57,0,0,1,3.57-3.57H408.4a3.57,3.57,0,0,1,3.57,3.57h0A3.57,3.57,0,0,1,408.4,261.31Z"></path></g><path d="M471.6,261.19H424.91a3.57,3.57,0,0,1-3.57-3.57h0a3.57,3.57,0,0,1,3.57-3.57H471.6a3.57,3.57,0,0,1,3.57,3.57h0A3.57,3.57,0,0,1,471.6,261.19Z" style="fill:#263238"></path><path d="M180.24,242.09h-19.7a3.57,3.57,0,0,1-3.57-3.57h0a3.57,3.57,0,0,1,3.57-3.57h19.7a3.57,3.57,0,0,1,3.57,3.57h0A3.57,3.57,0,0,1,180.24,242.09Z" style="fill:#455a64"></path><path d="M174.34,299.86h-13.8a3.57,3.57,0,0,1-3.57-3.57h0a3.57,3.57,0,0,1,3.57-3.57h13.8a3.57,3.57,0,0,1,3.58,3.57h0A3.57,3.57,0,0,1,174.34,299.86Z" style="fill:#455a64"></path><path d="M198.86,261.35H160.54a3.57,3.57,0,0,1-3.57-3.57h0a3.57,3.57,0,0,1,3.57-3.57h38.32a3.57,3.57,0,0,1,3.57,3.57h0A3.57,3.57,0,0,1,198.86,261.35Z" style="fill:#455a64"></path><path d="M192.14,280.61h-31.6A3.57,3.57,0,0,1,157,277h0a3.57,3.57,0,0,1,3.57-3.58h31.6a3.57,3.57,0,0,1,3.57,3.58h0A3.57,3.57,0,0,1,192.14,280.61Z" style="fill:#455a64"></path><circle cx="235.97" cy="182.38" r="3.63" style="fill:#263238"></circle><path d="M239.6,201a3.63,3.63,0,1,1-3.63-3.63A3.63,3.63,0,0,1,239.6,201Z" style="fill:#263238"></path><circle cx="235.97" cy="220.39" r="3.63" style="fill:#263238"></circle><path d="M239.6,239.76a3.63,3.63,0,1,1-3.63-3.62A3.62,3.62,0,0,1,239.6,239.76Z" style="fill:#263238"></path><circle cx="235.97" cy="259.14" r="3.63" style="fill:#263238"></circle><path d="M239.6,278.51a3.63,3.63,0,1,1-3.63-3.63A3.62,3.62,0,0,1,239.6,278.51Z" style="fill:#263238"></path><circle cx="235.97" cy="297.88" r="3.63" style="fill:#263238"></circle><path d="M239.6,317.25a3.63,3.63,0,1,1-3.63-3.63A3.63,3.63,0,0,1,239.6,317.25Z" style="fill:#263238"></path><circle cx="235.97" cy="336.62" r="3.63" style="fill:#263238"></circle><path d="M239.6,356a3.63,3.63,0,1,1-3.63-3.63A3.62,3.62,0,0,1,239.6,356Z" style="fill:#263238"></path><circle cx="235.97" cy="375.37" r="3.63" style="fill:#263238"></circle><path d="M239.6,394.74a3.63,3.63,0,1,1-3.63-3.63A3.63,3.63,0,0,1,239.6,394.74Z" style="fill:#263238"></path><g style="opacity:0.2"><rect x="441.68" y="132.09" width="9.02" height="288.44"></rect></g><path d="M450.68,132.09h157.5a7.68,7.68,0,0,1,7.68,7.68V414.31a6.22,6.22,0,0,1-6.22,6.22h-159a0,0,0,0,1,0,0V132.09A0,0,0,0,1,450.68,132.09Z" style="fill:#fff"></path><rect x="450.65" y="180.52" width="154.83" height="111.79" style="fill:#0C7EAC"></rect><path d="M585.38,326.64c0,.15-13,.26-29.08.26s-29.09-.11-29.09-.26,13-.26,29.09-.26S585.38,326.5,585.38,326.64Z" style="fill:#263238"></path><path d="M598.28,341.41c0,.14-18.8.26-42,.26s-42-.12-42-.26,18.79-.26,42-.26S598.28,341.26,598.28,341.41Z" style="fill:#263238"></path><path d="M598.28,353c0,.14-18.8.26-42,.26s-42-.12-42-.26,18.79-.26,42-.26S598.28,352.81,598.28,353Z" style="fill:#263238"></path><path d="M598.28,364.49c0,.15-18.8.26-42,.26s-42-.11-42-.26,18.79-.26,42-.26S598.28,364.35,598.28,364.49Z" style="fill:#263238"></path><path d="M575.31,400.54h-38a9.62,9.62,0,0,1-9.62-9.62h0a9.62,9.62,0,0,1,9.62-9.62h38a9.62,9.62,0,0,1,9.62,9.62h0A9.61,9.61,0,0,1,575.31,400.54Z" style="fill:#0C7EAC"></path><path d="M484.83,326.64a6.3,6.3,0,0,1-1.34.1l-3.66.09c-3.09,0-7.36.07-12.07.07s-9,0-12.08-.07l-3.66-.09a6.3,6.3,0,0,1-1.34-.1,7.27,7.27,0,0,1,1.34-.1l3.66-.08c3.09,0,7.36-.08,12.08-.08s9,0,12.07.08l3.66.08A7.27,7.27,0,0,1,484.83,326.64Z" style="fill:#263238"></path><path d="M497.73,341.41a1.87,1.87,0,0,1-.48,0l-1.37.05-5,.08c-4.26.05-10.14.08-16.63.08s-12.38,0-16.64-.08l-5-.08-1.37-.05a1.87,1.87,0,0,1-.48,0,1.58,1.58,0,0,1,.48-.06l1.37,0,5-.09c4.26,0,10.14-.07,16.64-.07s12.37,0,16.63.07l5,.09,1.37,0A1.58,1.58,0,0,1,497.73,341.41Z" style="fill:#263238"></path><path d="M497.73,353a1.44,1.44,0,0,1-.48.05l-1.37.05-5,.08c-4.26.05-10.14.08-16.63.08s-12.38,0-16.64-.08l-5-.08-1.37-.05a.24.24,0,1,1,0-.1l1.37,0,5-.08c4.26,0,10.14-.08,16.64-.08s12.37,0,16.63.08l5,.08,1.37,0A1.44,1.44,0,0,1,497.73,353Z" style="fill:#263238"></path><path d="M497.73,364.49a1.44,1.44,0,0,1-.48.05l-1.37,0-5,.09c-4.26,0-10.14.07-16.63.07s-12.38,0-16.64-.07l-5-.09-1.37,0a1.44,1.44,0,0,1-.48-.05,1.87,1.87,0,0,1,.48-.05l1.37-.05,5-.08c4.26-.05,10.14-.08,16.64-.08s12.37,0,16.63.08l5,.08,1.37.05A1.87,1.87,0,0,1,497.73,364.49Z" style="fill:#263238"></path><path d="M475.06,381.3H450.68v19.24h24.38a9.62,9.62,0,0,0,0-19.24Z" style="fill:#0C7EAC"></path><path d="M605.47,132.09h2.73a7.66,7.66,0,0,1,7.66,7.66V414a6.52,6.52,0,0,1-6.52,6.52h-3.87a0,0,0,0,1,0,0V132.09A0,0,0,0,1,605.47,132.09Z" style="fill:#f5f5f5"></path><path d="M610.67,179.76h0a5.19,5.19,0,0,1-5.2-5.19V147.26a5.19,5.19,0,0,1,5.2-5.19h0a5.19,5.19,0,0,1,5.19,5.19v27.31A5.19,5.19,0,0,1,610.67,179.76Z" style="fill:#e0e0e0"></path><path d="M577.39,166.44H526.25a12.44,12.44,0,0,1,0-24.87h51.14a12.44,12.44,0,0,1,0,24.87Zm-51.14-23.87a11.44,11.44,0,0,0,0,22.87h51.14a11.44,11.44,0,0,0,0-22.87Z" style="fill:#e0e0e0"></path><path d="M490,153.47c0,.15-8.9.26-19.87.26s-19.87-.11-19.87-.26,8.9-.26,19.87-.26S490,153.33,490,153.47Z" style="fill:#e0e0e0"></path><path d="M575.93,153.47c0,.15-10.44.26-23.32.26s-23.33-.11-23.33-.26,10.44-.26,23.33-.26S575.93,153.33,575.93,153.47Z" style="fill:#e0e0e0"></path><ellipse cx="532.6" cy="216.28" rx="11.03" ry="11.38" style="fill:#fff"></ellipse><path d="M605.47,267.46l-.44-.32-1.26-1-4.83-3.78-17.72-14L569,238.71l-1.66-1.32a4.85,4.85,0,0,0-1.84-.89,4.76,4.76,0,0,0-4,.84c-2.2,1.95-4.47,4.07-6.79,6.18l-14.58,13.35c-1.28,1.15-2.52,2.32-3.85,3.49a5.21,5.21,0,0,1-5.22.83,5.61,5.61,0,0,1-2.22-1.61l-1.82-2-3.67-4L509,238l-6.84-7.43-3.31-3.6c-.54-.6-1.09-1.19-1.63-1.77a16.28,16.28,0,0,0-1.63-1.68,4.75,4.75,0,0,0-6.09.15c-.52.47-1,1.08-1.53,1.62l-5.86,6.4-10.53,11.49L456.3,259.8l-4.17,4.49-1.1,1.17a5.15,5.15,0,0,1-.38.38s.11-.15.34-.42.61-.68,1.06-1.2l4.1-4.56,15.16-16.73,10.48-11.53q2.83-3.1,5.84-6.42c.52-.55,1-1.11,1.56-1.66a5.26,5.26,0,0,1,2.09-1.13,5.17,5.17,0,0,1,4.61,1,18.24,18.24,0,0,1,1.69,1.72l1.63,1.77,3.32,3.59,6.84,7.42,14.39,15.61,3.67,4c.61.66,1.21,1.32,1.82,2a5,5,0,0,0,2,1.49A4.7,4.7,0,0,0,536,260c1.29-1.14,2.57-2.33,3.83-3.48l14.61-13.32c2.34-2.12,4.56-4.2,6.83-6.2a5.21,5.21,0,0,1,4.37-.9,5.27,5.27,0,0,1,2,1l1.66,1.32,12.17,9.73,17.61,14.12,4.77,3.86,1.24,1C605.34,267.33,605.47,267.46,605.47,267.46Z" style="fill:#fff"></path><path d="M608.29,421H143.5a8.08,8.08,0,0,1-8.07-8.07V139.66a8.08,8.08,0,0,1,8.07-8.07H608.29a8.08,8.08,0,0,1,8.07,8.07V413A8.08,8.08,0,0,1,608.29,421ZM143.5,132.59a7.08,7.08,0,0,0-7.07,7.07V413A7.08,7.08,0,0,0,143.5,420H608.29a7.08,7.08,0,0,0,7.07-7.07V139.66a7.08,7.08,0,0,0-7.07-7.07Z" style="fill:#263238"></path><path d="M648.85,437.27c0,.15-123.25.26-275.26.26s-275.29-.11-275.29-.26S221.53,437,373.59,437,648.85,437.13,648.85,437.27Z" style="fill:#263238"></path></g></svg>